<svg width="560" height="292" viewBox="0 0 560 292" fill="none" xmlns="http://www.w3.org/2000/svg">
<path d="M299.663 36.695C299.307 36.9681 293.018 40.4709 293.018 48.2596C293.018 57.2685 301.02 60.4556 301.26 60.5345C301.223 60.7288 299.988 64.8993 297.04 69.1488C294.412 72.8884 291.666 76.6218 287.49 76.6218C283.314 76.6218 282.239 74.2239 277.417 74.2239C272.719 74.2239 271.048 76.7008 267.228 76.7008C263.408 76.7008 260.743 73.2405 257.678 68.991C254.128 64.0009 251.26 56.2486 251.26 48.891C251.26 37.0895 259.023 30.8307 266.663 30.8307C270.723 30.8307 274.107 33.4654 276.656 33.4654C279.082 33.4654 282.865 30.6728 287.484 30.6728C289.234 30.6728 295.523 30.8307 299.663 36.695ZM285.291 25.6767C287.201 23.4366 288.552 20.3284 288.552 17.2202C288.552 16.7892 288.516 16.3521 288.436 16C285.328 16.1153 281.631 18.0458 279.401 20.6016C277.651 22.5685 276.017 25.6767 276.017 28.8274C276.017 29.3009 276.097 29.7744 276.134 29.9261C276.33 29.9626 276.65 30.0051 276.969 30.0051C279.757 30.0051 283.264 28.1596 285.291 25.6767Z" fill="black"/>
<path d="M98.958 12.281C90.3505 18.6727 87.9855 30.4178 87.9855 30.4178C87.9855 30.4178 99.5777 31.7984 108.187 25.4073C116.795 19.014 119.159 7.27051 119.159 7.27051C119.159 7.27051 107.567 5.88984 98.958 12.281Z" fill="black"/>
<path d="M78.403 4.58405C78.403 4.58405 69.2982 12.1225 67.7013 22.8904C66.1048 33.6567 72.6208 43.574 72.6208 43.574C72.6208 43.574 81.7256 36.0356 83.322 25.2692C84.9175 14.5008 78.403 4.58405 78.403 4.58405Z" fill="black"/>
<path d="M93.021 35.414C82.5371 37.0942 75.2267 46.468 75.2267 46.468C75.2267 46.468 84.9151 53.1171 95.3995 51.4354C105.883 49.7552 113.193 40.383 113.193 40.383C113.193 40.383 103.505 33.7338 93.021 35.414Z" fill="black"/>
<path d="M56.7532 23.5154C56.7532 23.5154 47.7271 32.3504 46.9581 43.9322C46.1896 55.5124 53.9691 65.4549 53.9691 65.4549C53.9691 65.4549 62.9947 56.6215 63.7652 45.0403C64.5337 33.46 56.7532 23.5154 56.7532 23.5154Z" fill="black"/>
<path d="M74.9475 54.9356C63.9495 57.6722 56.9883 68.2916 56.9883 68.2916C56.9883 68.2916 67.8583 74.4745 78.8563 71.7379C89.8543 69.0014 96.8171 58.3825 96.8171 58.3825C96.8171 58.3825 85.9471 52.1996 74.9475 54.9356Z" fill="black"/>
<path d="M48.6444 69.9209C47.5846 57.6525 37.8197 48.5523 37.8197 48.5523C37.8197 48.5523 29.7699 59.3416 30.8292 71.6115C31.8874 83.8793 41.6539 92.9801 41.6539 92.9801C41.6539 92.9801 49.7026 82.1886 48.6444 69.9209Z" fill="black"/>
<path d="M61.9735 78.3943C50.8734 83.1297 45.2779 95.4405 45.2779 95.4405C45.2779 95.4405 57.6819 100.076 68.7815 95.3419C79.8833 90.6071 85.4772 78.2957 85.4772 78.2957C85.4772 78.2957 73.0747 73.661 61.9735 78.3943Z" fill="black"/>
<path d="M44.6743 214.677C34.0448 208.994 21.2711 212.529 21.2711 212.529C21.2711 212.529 25.7315 225.279 36.3605 230.964C46.9901 236.647 59.7617 233.113 59.7617 233.113C59.7617 233.113 55.3018 220.361 44.6743 214.677Z" fill="black"/>
<path d="M58.8725 207.729C56.709 219.857 63.7516 231.307 63.7516 231.307C63.7516 231.307 74.3016 223.094 76.4652 210.966C78.6287 198.839 71.586 187.388 71.586 187.388C71.586 187.388 61.0366 195.6 58.8725 207.729Z" fill="black"/>
<path d="M64.3828 243.607C54.1935 240.454 43.6141 245.698 43.6141 245.698C43.6141 245.698 49.5561 256.055 59.7474 259.206C69.9383 262.36 80.5162 257.115 80.5162 257.115C80.5162 257.115 74.5737 246.76 64.3828 243.607Z" fill="black"/>
<path d="M75.6588 235.146C75.7202 246.081 83.7084 254.866 83.7084 254.866C83.7084 254.866 91.5944 245.923 91.5314 234.988C91.4704 224.052 83.4822 215.266 83.4822 215.266C83.4822 215.266 75.5958 224.211 75.6588 235.146Z" fill="black"/>
<path d="M85.4316 263.714C76.4087 262.58 68.2449 268.563 68.2449 268.563C68.2449 268.563 74.7112 276.384 83.7326 277.518C92.7555 278.652 100.919 272.668 100.919 272.668C100.919 272.668 94.4545 264.848 85.4316 263.714Z" fill="black"/>
<path d="M93.7256 254.924C95.3223 264.106 103.287 270.304 103.287 270.304C103.287 270.304 108.661 261.611 107.063 252.428C105.466 243.245 97.5025 237.05 97.5025 237.05C97.5025 237.05 92.1288 245.741 93.7256 254.924Z" fill="black"/>
<path d="M109.282 277.012C102.488 276.99 96.9448 282.169 96.9448 282.169C96.9448 282.169 102.418 287.382 109.212 287.403C116.008 287.424 121.551 282.247 121.551 282.247C121.551 282.247 116.078 277.033 109.282 277.012Z" fill="black"/>
<path d="M114.682 269.741C116.66 276.406 123.106 280.278 123.106 280.278C123.106 280.278 126.345 273.343 124.369 266.679C122.391 260.014 115.946 256.142 115.946 256.142C115.946 256.142 112.706 263.077 114.682 269.741Z" fill="black"/>
<path d="M19.8386 81.5449C19.8386 81.5449 13.7815 94.646 17.5615 107.198C21.342 119.749 33.526 126.997 33.526 126.997C33.526 126.997 39.5817 113.895 35.8027 101.345C32.0227 88.7932 19.8386 81.5449 19.8386 81.5449Z" fill="black"/>
<path d="M51.5728 107.12C41.0094 114.606 37.8471 128.729 37.8471 128.729C37.8471 128.729 51.8144 130.716 62.3778 123.23C72.9406 115.746 76.1014 101.622 76.1014 101.622C76.1014 101.622 62.1362 99.6348 51.5728 107.12Z" fill="black"/>
<path d="M9.53645 124.841C9.53645 124.841 6.743 139.043 13.3748 150.27C20.005 161.496 33.5481 165.495 33.5481 165.495C33.5481 165.495 36.34 151.292 29.7098 140.066C23.0785 128.838 9.53645 124.841 9.53645 124.841Z" fill="black"/>
<path d="M68.9156 130.322C68.9156 130.322 54.8842 131.866 46.3895 141.746C37.8947 151.626 38.156 166.102 38.156 166.102C38.156 166.102 52.1874 164.558 60.6826 154.677C69.1758 144.797 68.9156 130.322 68.9156 130.322Z" fill="black"/>
<path d="M7.7348 172.218C7.7348 172.218 9.52396 186.572 19.3207 195.011C29.1164 203.448 43.2105 202.776 43.2105 202.776C43.2105 202.776 41.4219 188.42 31.6246 179.983C21.8294 171.544 7.7348 172.218 7.7348 172.218Z" fill="black"/>
<path d="M65.7666 157.864C65.7666 157.864 52.94 163.943 47.9697 176.083C43.0005 188.226 47.769 201.832 47.769 201.832C47.769 201.832 60.5956 195.753 65.5658 183.613C70.5345 171.472 65.7666 157.864 65.7666 157.864Z" fill="black"/>
<path d="M460.606 12.281C469.213 18.6727 471.578 30.4178 471.578 30.4178C471.578 30.4178 459.986 31.7984 451.377 25.4073C442.769 19.014 440.404 7.27051 440.404 7.27051C440.404 7.27051 451.997 5.88984 460.606 12.281Z" fill="black"/>
<path d="M481.161 4.58405C481.161 4.58405 490.265 12.1225 491.862 22.8904C493.459 33.6567 486.943 43.574 486.943 43.574C486.943 43.574 477.838 36.0356 476.241 25.2692C474.646 14.5008 481.161 4.58405 481.161 4.58405Z" fill="black"/>
<path d="M466.542 35.414C477.026 37.0942 484.337 46.468 484.337 46.468C484.337 46.468 474.648 53.1171 464.164 51.4354C453.68 49.7552 446.37 40.383 446.37 40.383C446.37 40.383 456.059 33.7338 466.542 35.414Z" fill="black"/>
<path d="M502.81 23.5154C502.81 23.5154 511.836 32.3504 512.605 43.9322C513.374 55.5124 505.594 65.4549 505.594 65.4549C505.594 65.4549 496.569 56.6215 495.798 45.0403C495.03 33.46 502.81 23.5154 502.81 23.5154Z" fill="black"/>
<path d="M484.616 54.9356C495.614 57.6722 502.575 68.2916 502.575 68.2916C502.575 68.2916 491.705 74.4745 480.707 71.7379C469.709 69.0014 462.747 58.3825 462.747 58.3825C462.747 58.3825 473.617 52.1996 484.616 54.9356Z" fill="black"/>
<path d="M510.92 69.9209C511.979 57.6525 521.744 48.5523 521.744 48.5523C521.744 48.5523 529.794 59.3416 528.735 71.6115C527.677 83.8793 517.91 92.9801 517.91 92.9801C517.91 92.9801 509.861 82.1886 510.92 69.9209Z" fill="black"/>
<path d="M497.59 78.3943C508.69 83.1297 514.286 95.4405 514.286 95.4405C514.286 95.4405 501.882 100.076 490.782 95.3419C479.68 90.6071 474.087 78.2957 474.087 78.2957C474.087 78.2957 486.489 73.661 497.59 78.3943Z" fill="black"/>
<path d="M514.889 214.677C525.519 208.994 538.292 212.529 538.292 212.529C538.292 212.529 533.832 225.279 523.203 230.964C512.573 236.647 499.802 233.113 499.802 233.113C499.802 233.113 504.262 220.361 514.889 214.677Z" fill="black"/>
<path d="M500.691 207.729C502.855 219.857 495.812 231.307 495.812 231.307C495.812 231.307 485.262 223.094 483.099 210.966C480.935 198.839 487.978 187.388 487.978 187.388C487.978 187.388 498.527 195.6 500.691 207.729Z" fill="black"/>
<path d="M495.181 243.607C505.37 240.454 515.95 245.698 515.95 245.698C515.95 245.698 510.008 256.055 499.816 259.206C489.625 262.36 479.048 257.115 479.048 257.115C479.048 257.115 484.99 246.76 495.181 243.607Z" fill="black"/>
<path d="M483.905 235.146C483.843 246.081 475.855 254.866 475.855 254.866C475.855 254.866 467.969 245.923 468.032 234.988C468.093 224.052 476.081 215.266 476.081 215.266C476.081 215.266 483.968 224.211 483.905 235.146Z" fill="black"/>
<path d="M474.132 263.714C483.155 262.58 491.319 268.563 491.319 268.563C491.319 268.563 484.853 276.384 475.831 277.518C466.808 278.652 458.645 272.668 458.645 272.668C458.645 272.668 465.109 264.848 474.132 263.714Z" fill="black"/>
<path d="M465.838 254.924C464.241 264.106 456.276 270.304 456.276 270.304C456.276 270.304 450.902 261.611 452.501 252.428C454.097 243.245 462.061 237.05 462.061 237.05C462.061 237.05 467.435 245.741 465.838 254.924Z" fill="black"/>
<path d="M450.281 277.012C457.075 276.99 462.619 282.169 462.619 282.169C462.619 282.169 457.146 287.382 450.352 287.403C443.556 287.424 438.013 282.247 438.013 282.247C438.013 282.247 443.485 277.033 450.281 277.012Z" fill="black"/>
<path d="M444.882 269.741C442.904 276.406 436.458 280.278 436.458 280.278C436.458 280.278 433.219 273.343 435.195 266.679C437.173 260.014 443.618 256.142 443.618 256.142C443.618 256.142 446.858 263.077 444.882 269.741Z" fill="black"/>
<path d="M539.725 81.5449C539.725 81.5449 545.783 94.646 542.002 107.198C538.222 119.749 526.038 126.997 526.038 126.997C526.038 126.997 519.982 113.895 523.761 101.345C527.541 88.7932 539.725 81.5449 539.725 81.5449Z" fill="black"/>
<path d="M507.991 107.12C518.554 114.606 521.717 128.729 521.717 128.729C521.717 128.729 507.749 130.716 497.186 123.23C486.623 115.746 483.462 101.622 483.462 101.622C483.462 101.622 497.428 99.6348 507.991 107.12Z" fill="black"/>
<path d="M550.027 124.841C550.027 124.841 552.821 139.043 546.189 150.27C539.559 161.496 526.016 165.495 526.016 165.495C526.016 165.495 523.224 151.292 529.854 140.066C536.485 128.838 550.027 124.841 550.027 124.841Z" fill="black"/>
<path d="M490.648 130.322C490.648 130.322 504.68 131.866 513.174 141.746C521.669 151.626 521.408 166.102 521.408 166.102C521.408 166.102 507.376 164.558 498.881 154.677C490.388 144.797 490.648 130.322 490.648 130.322Z" fill="black"/>
<path d="M551.829 172.218C551.829 172.218 550.04 186.572 540.243 195.011C530.447 203.448 516.353 202.776 516.353 202.776C516.353 202.776 518.142 188.42 527.939 179.983C537.734 171.544 551.829 172.218 551.829 172.218Z" fill="black"/>
<path d="M493.797 157.864C493.797 157.864 506.624 163.943 511.594 176.083C516.563 188.226 511.795 201.832 511.795 201.832C511.795 201.832 498.968 195.753 493.998 183.613C489.029 171.472 493.797 157.864 493.797 157.864Z" fill="black"/>
<path d="M200.099 188.774V161.414H211.651C211.917 161.414 212.272 161.427 212.715 161.452C213.171 161.465 213.577 161.503 213.931 161.566C215.565 161.819 216.902 162.358 217.94 163.181C218.992 164.004 219.764 165.043 220.258 166.297C220.752 167.538 220.999 168.925 220.999 170.458C220.999 171.991 220.746 173.384 220.239 174.638C219.745 175.879 218.973 176.912 217.921 177.735C216.883 178.558 215.553 179.097 213.931 179.35C213.577 179.401 213.171 179.439 212.715 179.464C212.259 179.489 211.905 179.502 211.651 179.502H205.267V188.774H200.099ZM205.267 174.676H211.423C211.689 174.676 211.981 174.663 212.297 174.638C212.614 174.613 212.905 174.562 213.171 174.486C213.868 174.296 214.406 173.979 214.786 173.536C215.166 173.08 215.426 172.58 215.565 172.035C215.717 171.478 215.793 170.952 215.793 170.458C215.793 169.964 215.717 169.445 215.565 168.9C215.426 168.343 215.166 167.842 214.786 167.399C214.406 166.943 213.868 166.62 213.171 166.43C212.905 166.354 212.614 166.303 212.297 166.278C211.981 166.253 211.689 166.24 211.423 166.24H205.267V174.676ZM224.814 188.774V168.254H229.374V173.27L228.88 172.624C229.146 171.915 229.501 171.269 229.944 170.686C230.388 170.103 230.932 169.622 231.578 169.242C232.072 168.938 232.611 168.704 233.193 168.539C233.776 168.362 234.378 168.254 234.998 168.216C235.619 168.165 236.24 168.178 236.86 168.254V173.08C236.29 172.903 235.625 172.846 234.865 172.909C234.118 172.96 233.44 173.131 232.832 173.422C232.224 173.701 231.711 174.074 231.293 174.543C230.875 174.999 230.559 175.544 230.343 176.177C230.128 176.798 230.02 177.501 230.02 178.286V188.774H224.814ZM245.766 189.344C244.297 189.344 243.049 189.065 242.023 188.508C241.01 187.938 240.237 187.184 239.705 186.247C239.186 185.297 238.926 184.252 238.926 183.112C238.926 182.162 239.072 181.294 239.363 180.509C239.655 179.724 240.123 179.033 240.769 178.438C241.428 177.83 242.308 177.323 243.41 176.918C244.17 176.639 245.076 176.392 246.127 176.177C247.179 175.962 248.369 175.759 249.699 175.569C251.029 175.366 252.492 175.145 254.088 174.904L252.226 175.93C252.226 174.714 251.935 173.821 251.352 173.251C250.77 172.681 249.794 172.396 248.426 172.396C247.666 172.396 246.875 172.58 246.051 172.947C245.228 173.314 244.652 173.967 244.322 174.904L239.648 173.422C240.168 171.725 241.143 170.344 242.574 169.28C244.006 168.216 245.956 167.684 248.426 167.684C250.238 167.684 251.846 167.963 253.252 168.52C254.658 169.077 255.722 170.04 256.444 171.408C256.85 172.168 257.09 172.928 257.166 173.688C257.242 174.448 257.28 175.297 257.28 176.234V188.774H252.758V184.556L253.404 185.43C252.404 186.811 251.321 187.811 250.155 188.432C249.003 189.04 247.54 189.344 245.766 189.344ZM246.868 185.278C247.818 185.278 248.616 185.113 249.262 184.784C249.921 184.442 250.44 184.056 250.82 183.625C251.213 183.194 251.479 182.833 251.618 182.542C251.884 181.985 252.036 181.339 252.074 180.604C252.125 179.857 252.15 179.236 252.15 178.742L253.67 179.122C252.138 179.375 250.896 179.591 249.946 179.768C248.996 179.933 248.23 180.085 247.647 180.224C247.065 180.363 246.552 180.515 246.108 180.68C245.602 180.883 245.19 181.104 244.873 181.345C244.569 181.573 244.341 181.826 244.189 182.105C244.05 182.384 243.98 182.694 243.98 183.036C243.98 183.505 244.094 183.91 244.322 184.252C244.563 184.581 244.899 184.835 245.329 185.012C245.76 185.189 246.273 185.278 246.868 185.278ZM271.265 189.344C269.137 189.344 267.313 188.869 265.793 187.919C264.273 186.969 263.107 185.677 262.297 184.043C261.486 182.409 261.081 180.566 261.081 178.514C261.081 176.437 261.499 174.581 262.335 172.947C263.183 171.313 264.374 170.027 265.907 169.09C267.439 168.153 269.251 167.684 271.341 167.684C273.76 167.684 275.787 168.298 277.421 169.527C279.067 170.743 280.119 172.409 280.575 174.524L275.407 175.892C275.103 174.828 274.571 173.998 273.811 173.403C273.063 172.808 272.215 172.51 271.265 172.51C270.175 172.51 269.282 172.776 268.586 173.308C267.889 173.827 267.376 174.543 267.047 175.455C266.717 176.354 266.553 177.374 266.553 178.514C266.553 180.3 266.945 181.75 267.731 182.865C268.529 183.967 269.707 184.518 271.265 184.518C272.43 184.518 273.317 184.252 273.925 183.72C274.533 183.188 274.989 182.428 275.293 181.44L280.575 182.542C279.992 184.721 278.89 186.399 277.269 187.577C275.647 188.755 273.646 189.344 271.265 189.344ZM296.687 188.774C295.268 189.04 293.875 189.154 292.507 189.116C291.152 189.091 289.936 188.856 288.859 188.413C287.795 187.957 286.984 187.229 286.427 186.228C285.92 185.291 285.654 184.341 285.629 183.378C285.604 182.403 285.591 181.301 285.591 180.072V162.554H290.759V179.768C290.759 180.566 290.765 181.288 290.778 181.934C290.803 182.567 290.936 183.074 291.177 183.454C291.633 184.176 292.361 184.569 293.362 184.632C294.363 184.695 295.471 184.645 296.687 184.48V188.774ZM282.095 172.244V168.254H296.687V172.244H282.095ZM301.64 165.404V160.844H306.808V165.404H301.64ZM301.64 188.774V168.254H306.808V188.774H301.64ZM321.548 189.344C319.42 189.344 317.596 188.869 316.076 187.919C314.556 186.969 313.39 185.677 312.58 184.043C311.769 182.409 311.364 180.566 311.364 178.514C311.364 176.437 311.782 174.581 312.618 172.947C313.466 171.313 314.657 170.027 316.19 169.09C317.722 168.153 319.534 167.684 321.624 167.684C324.043 167.684 326.07 168.298 327.704 169.527C329.35 170.743 330.402 172.409 330.858 174.524L325.69 175.892C325.386 174.828 324.854 173.998 324.094 173.403C323.346 172.808 322.498 172.51 321.548 172.51C320.458 172.51 319.565 172.776 318.869 173.308C318.172 173.827 317.659 174.543 317.33 175.455C317 176.354 316.836 177.374 316.836 178.514C316.836 180.3 317.228 181.75 318.014 182.865C318.812 183.967 319.99 184.518 321.548 184.518C322.713 184.518 323.6 184.252 324.208 183.72C324.816 183.188 325.272 182.428 325.576 181.44L330.858 182.542C330.275 184.721 329.173 186.399 327.552 187.577C325.93 188.755 323.929 189.344 321.548 189.344ZM343.639 189.344C341.537 189.344 339.681 188.894 338.072 187.995C336.476 187.083 335.222 185.835 334.31 184.252C333.411 182.656 332.961 180.832 332.961 178.78C332.961 176.538 333.405 174.587 334.291 172.928C335.178 171.269 336.4 169.983 337.958 169.071C339.516 168.146 341.309 167.684 343.335 167.684C345.489 167.684 347.319 168.191 348.826 169.204C350.334 170.217 351.448 171.642 352.17 173.479C352.892 175.316 353.146 177.475 352.93 179.958H347.819V178.058C347.819 175.968 347.484 174.467 346.812 173.555C346.154 172.63 345.071 172.168 343.563 172.168C341.803 172.168 340.504 172.706 339.668 173.783C338.845 174.847 338.433 176.424 338.433 178.514C338.433 180.427 338.845 181.909 339.668 182.96C340.504 183.999 341.727 184.518 343.335 184.518C344.349 184.518 345.216 184.296 345.938 183.853C346.66 183.41 347.211 182.77 347.591 181.934L352.759 183.416C351.987 185.291 350.764 186.747 349.092 187.786C347.433 188.825 345.615 189.344 343.639 189.344ZM336.837 179.958V176.12H350.441V179.958H336.837ZM199.303 241.344C197.276 241.344 195.446 240.989 193.812 240.28C192.19 239.558 190.854 238.532 189.803 237.202C188.764 235.859 188.105 234.263 187.827 232.414L193.223 231.616C193.603 233.187 194.388 234.396 195.579 235.245C196.769 236.094 198.125 236.518 199.645 236.518C200.493 236.518 201.317 236.385 202.115 236.119C202.913 235.853 203.565 235.46 204.072 234.941C204.591 234.422 204.851 233.782 204.851 233.022C204.851 232.743 204.806 232.477 204.718 232.224C204.642 231.958 204.509 231.711 204.319 231.483C204.129 231.255 203.856 231.04 203.502 230.837C203.16 230.634 202.723 230.451 202.191 230.286L195.085 228.196C194.553 228.044 193.932 227.829 193.223 227.55C192.526 227.271 191.848 226.872 191.19 226.353C190.531 225.834 189.98 225.15 189.537 224.301C189.106 223.44 188.891 222.357 188.891 221.052C188.891 219.215 189.353 217.689 190.278 216.473C191.202 215.257 192.437 214.351 193.983 213.756C195.528 213.161 197.238 212.869 199.113 212.882C201 212.907 202.685 213.23 204.167 213.851C205.649 214.472 206.89 215.377 207.891 216.568C208.891 217.746 209.613 219.19 210.057 220.9L204.471 221.85C204.268 220.963 203.894 220.216 203.35 219.608C202.805 219 202.153 218.538 201.393 218.221C200.645 217.904 199.86 217.733 199.037 217.708C198.226 217.683 197.46 217.797 196.738 218.05C196.028 218.291 195.446 218.645 194.99 219.114C194.546 219.583 194.325 220.14 194.325 220.786C194.325 221.381 194.508 221.869 194.876 222.249C195.243 222.616 195.705 222.914 196.263 223.142C196.82 223.37 197.39 223.56 197.973 223.712L202.723 225.004C203.432 225.194 204.217 225.447 205.079 225.764C205.94 226.068 206.763 226.499 207.549 227.056C208.347 227.601 208.999 228.323 209.506 229.222C210.025 230.121 210.285 231.261 210.285 232.642C210.285 234.111 209.974 235.397 209.354 236.499C208.746 237.588 207.922 238.494 206.884 239.216C205.845 239.925 204.667 240.457 203.35 240.812C202.045 241.167 200.696 241.344 199.303 241.344ZM223.999 241.344C221.896 241.344 220.04 240.894 218.432 239.995C216.836 239.083 215.582 237.835 214.67 236.252C213.77 234.656 213.321 232.832 213.321 230.78C213.321 228.538 213.764 226.587 214.651 224.928C215.537 223.269 216.76 221.983 218.318 221.071C219.876 220.146 221.668 219.684 223.695 219.684C225.848 219.684 227.678 220.191 229.186 221.204C230.693 222.217 231.808 223.642 232.53 225.479C233.252 227.316 233.505 229.475 233.29 231.958H228.179V230.058C228.179 227.968 227.843 226.467 227.172 225.555C226.513 224.63 225.43 224.168 223.923 224.168C222.162 224.168 220.864 224.706 220.028 225.783C219.204 226.847 218.793 228.424 218.793 230.514C218.793 232.427 219.204 233.909 220.028 234.96C220.864 235.999 222.086 236.518 223.695 236.518C224.708 236.518 225.576 236.296 226.298 235.853C227.02 235.41 227.571 234.77 227.951 233.934L233.119 235.416C232.346 237.291 231.124 238.747 229.452 239.786C227.792 240.825 225.975 241.344 223.999 241.344ZM217.197 231.958V228.12H230.801V231.958H217.197ZM237.96 240.774V212.844H243.128V240.774H237.96ZM250.534 240.774V220.33C250.534 219.811 250.547 219.222 250.572 218.563C250.597 217.904 250.699 217.239 250.876 216.568C251.066 215.897 251.408 215.289 251.902 214.744C252.535 214.035 253.219 213.553 253.954 213.3C254.701 213.034 255.423 212.895 256.12 212.882C256.817 212.857 257.412 212.844 257.906 212.844H260.452V217.024H258.096C257.285 217.024 256.684 217.233 256.291 217.651C255.898 218.056 255.702 218.544 255.702 219.114V240.774H250.534ZM247.304 224.244V220.254H260.452V224.244H247.304ZM263.102 230.78V226.79H274.502V230.78H263.102ZM291.181 241.344C288.445 241.344 286.083 240.749 284.094 239.558C282.118 238.367 280.592 236.702 279.515 234.561C278.451 232.42 277.919 229.931 277.919 227.094C277.919 224.257 278.451 221.768 279.515 219.627C280.592 217.486 282.118 215.821 284.094 214.63C286.083 213.439 288.445 212.844 291.181 212.844C294.323 212.844 296.957 213.623 299.085 215.181C301.226 216.739 302.733 218.848 303.607 221.508L298.401 222.952C297.895 221.293 297.04 220.007 295.836 219.095C294.633 218.17 293.081 217.708 291.181 217.708C289.446 217.708 287.996 218.094 286.83 218.867C285.678 219.64 284.81 220.729 284.227 222.135C283.645 223.541 283.353 225.194 283.353 227.094C283.353 228.994 283.645 230.647 284.227 232.053C284.81 233.459 285.678 234.548 286.83 235.321C287.996 236.094 289.446 236.48 291.181 236.48C293.081 236.48 294.633 236.018 295.836 235.093C297.04 234.168 297.895 232.883 298.401 231.236L303.607 232.68C302.733 235.34 301.226 237.449 299.085 239.007C296.957 240.565 294.323 241.344 291.181 241.344ZM313.491 241.344C312.022 241.344 310.774 241.065 309.748 240.508C308.735 239.938 307.962 239.184 307.43 238.247C306.911 237.297 306.651 236.252 306.651 235.112C306.651 234.162 306.797 233.294 307.088 232.509C307.379 231.724 307.848 231.033 308.494 230.438C309.153 229.83 310.033 229.323 311.135 228.918C311.895 228.639 312.801 228.392 313.852 228.177C314.903 227.962 316.094 227.759 317.424 227.569C318.754 227.366 320.217 227.145 321.813 226.904L319.951 227.93C319.951 226.714 319.66 225.821 319.077 225.251C318.494 224.681 317.519 224.396 316.151 224.396C315.391 224.396 314.599 224.58 313.776 224.947C312.953 225.314 312.376 225.967 312.047 226.904L307.373 225.422C307.892 223.725 308.868 222.344 310.299 221.28C311.73 220.216 313.681 219.684 316.151 219.684C317.962 219.684 319.571 219.963 320.977 220.52C322.383 221.077 323.447 222.04 324.169 223.408C324.574 224.168 324.815 224.928 324.891 225.688C324.967 226.448 325.005 227.297 325.005 228.234V240.774H320.483V236.556L321.129 237.43C320.128 238.811 319.045 239.811 317.88 240.432C316.727 241.04 315.264 241.344 313.491 241.344ZM314.593 237.278C315.543 237.278 316.341 237.113 316.987 236.784C317.646 236.442 318.165 236.056 318.545 235.625C318.938 235.194 319.204 234.833 319.343 234.542C319.609 233.985 319.761 233.339 319.799 232.604C319.85 231.857 319.875 231.236 319.875 230.742L321.395 231.122C319.862 231.375 318.621 231.591 317.671 231.768C316.721 231.933 315.955 232.085 315.372 232.224C314.789 232.363 314.276 232.515 313.833 232.68C313.326 232.883 312.915 233.104 312.598 233.345C312.294 233.573 312.066 233.826 311.914 234.105C311.775 234.384 311.705 234.694 311.705 235.036C311.705 235.505 311.819 235.91 312.047 236.252C312.288 236.581 312.623 236.835 313.054 237.012C313.485 237.189 313.998 237.278 314.593 237.278ZM329.945 240.774V220.254H334.505V225.27L334.011 224.624C334.277 223.915 334.632 223.269 335.075 222.686C335.518 222.103 336.063 221.622 336.709 221.242C337.203 220.938 337.741 220.704 338.324 220.539C338.907 220.362 339.508 220.254 340.129 220.216C340.75 220.165 341.37 220.178 341.991 220.254V225.08C341.421 224.903 340.756 224.846 339.996 224.909C339.249 224.96 338.571 225.131 337.963 225.422C337.355 225.701 336.842 226.074 336.424 226.543C336.006 226.999 335.689 227.544 335.474 228.177C335.259 228.798 335.151 229.501 335.151 230.286V240.774H329.945ZM354.772 241.344C352.67 241.344 350.814 240.894 349.205 239.995C347.609 239.083 346.355 237.835 345.443 236.252C344.544 234.656 344.094 232.832 344.094 230.78C344.094 228.538 344.538 226.587 345.424 224.928C346.311 223.269 347.533 221.983 349.091 221.071C350.649 220.146 352.442 219.684 354.468 219.684C356.622 219.684 358.452 220.191 359.959 221.204C361.467 222.217 362.581 223.642 363.303 225.479C364.025 227.316 364.279 229.475 364.063 231.958H358.952V230.058C358.952 227.968 358.617 226.467 357.945 225.555C357.287 224.63 356.204 224.168 354.696 224.168C352.936 224.168 351.637 224.706 350.801 225.783C349.978 226.847 349.566 228.424 349.566 230.514C349.566 232.427 349.978 233.909 350.801 234.96C351.637 235.999 352.86 236.518 354.468 236.518C355.482 236.518 356.349 236.296 357.071 235.853C357.793 235.41 358.344 234.77 358.724 233.934L363.892 235.416C363.12 237.291 361.897 238.747 360.225 239.786C358.566 240.825 356.748 241.344 354.772 241.344ZM347.97 231.958V228.12H361.574V231.958H347.97Z" fill="black"/>
<path d="M199.84 118.774H195.879L204.778 94.0467H209.088L217.987 118.774H214.026L207.036 98.5381H206.842L199.84 118.774ZM200.504 109.091H213.35V112.23H200.504V109.091ZM221.268 125.728V100.228H224.793V103.235H225.095C225.304 102.848 225.606 102.402 226.001 101.895C226.395 101.388 226.942 100.945 227.643 100.567C228.343 100.18 229.269 99.987 230.42 99.987C231.917 99.987 233.253 100.365 234.428 101.122C235.603 101.879 236.525 102.969 237.193 104.394C237.869 105.819 238.207 107.533 238.207 109.537C238.207 111.542 237.873 113.26 237.205 114.693C236.537 116.118 235.619 117.216 234.452 117.989C233.285 118.754 231.953 119.136 230.456 119.136C229.329 119.136 228.407 118.947 227.691 118.569C226.983 118.19 226.427 117.748 226.025 117.241C225.622 116.733 225.312 116.283 225.095 115.888H224.878V125.728H221.268ZM224.805 109.501C224.805 110.805 224.994 111.948 225.373 112.93C225.751 113.912 226.298 114.681 227.015 115.236C227.731 115.784 228.609 116.057 229.647 116.057C230.726 116.057 231.627 115.772 232.351 115.2C233.076 114.621 233.623 113.836 233.994 112.846C234.372 111.856 234.561 110.741 234.561 109.501C234.561 108.278 234.376 107.179 234.006 106.205C233.643 105.231 233.096 104.462 232.364 103.899C231.639 103.335 230.734 103.054 229.647 103.054C228.601 103.054 227.715 103.323 226.991 103.863C226.274 104.402 225.731 105.155 225.361 106.121C224.99 107.086 224.805 108.213 224.805 109.501ZM242.252 125.728V100.228H245.778V103.235H246.079C246.289 102.848 246.591 102.402 246.985 101.895C247.379 101.388 247.927 100.945 248.627 100.567C249.327 100.18 250.253 99.987 251.404 99.987C252.901 99.987 254.237 100.365 255.413 101.122C256.588 101.879 257.509 102.969 258.177 104.394C258.854 105.819 259.192 107.533 259.192 109.537C259.192 111.542 258.858 113.26 258.19 114.693C257.521 116.118 256.604 117.216 255.437 117.989C254.27 118.754 252.937 119.136 251.44 119.136C250.313 119.136 249.392 118.947 248.675 118.569C247.967 118.19 247.412 117.748 247.009 117.241C246.607 116.733 246.297 116.283 246.079 115.888H245.862V125.728H242.252ZM245.79 109.501C245.79 110.805 245.979 111.948 246.357 112.93C246.735 113.912 247.283 114.681 247.999 115.236C248.716 115.784 249.593 116.057 250.631 116.057C251.71 116.057 252.611 115.772 253.336 115.2C254.06 114.621 254.608 113.836 254.978 112.846C255.356 111.856 255.545 110.741 255.545 109.501C255.545 108.278 255.36 107.179 254.99 106.205C254.628 105.231 254.08 104.462 253.348 103.899C252.623 103.335 251.718 103.054 250.631 103.054C249.585 103.054 248.699 103.323 247.975 103.863C247.259 104.402 246.715 105.155 246.345 106.121C245.975 107.086 245.79 108.213 245.79 109.501ZM286.011 100.542C285.882 99.3994 285.351 98.514 284.417 97.8861C283.483 97.2503 282.308 96.9323 280.891 96.9323C279.877 96.9323 279 97.0933 278.259 97.4153C277.519 97.7292 276.943 98.1638 276.533 98.7192C276.13 99.2666 275.929 99.8904 275.929 100.591C275.929 101.178 276.066 101.685 276.34 102.112C276.621 102.539 276.988 102.897 277.438 103.187C277.897 103.468 278.388 103.706 278.911 103.899C279.435 104.084 279.938 104.237 280.421 104.358L282.835 104.986C283.624 105.179 284.433 105.44 285.262 105.77C286.091 106.1 286.86 106.535 287.568 107.074C288.277 107.614 288.848 108.282 289.283 109.079C289.725 109.875 289.947 110.829 289.947 111.94C289.947 113.341 289.585 114.584 288.86 115.671C288.144 116.758 287.101 117.615 285.733 118.243C284.373 118.871 282.727 119.184 280.795 119.184C278.944 119.184 277.342 118.891 275.989 118.303C274.637 117.715 273.579 116.882 272.814 115.804C272.049 114.717 271.627 113.429 271.546 111.94H275.289C275.362 112.834 275.651 113.578 276.158 114.174C276.674 114.761 277.33 115.2 278.127 115.49C278.931 115.772 279.813 115.912 280.771 115.912C281.825 115.912 282.763 115.747 283.584 115.417C284.413 115.079 285.065 114.612 285.54 114.017C286.015 113.413 286.252 112.709 286.252 111.904C286.252 111.171 286.043 110.572 285.624 110.105C285.214 109.638 284.654 109.252 283.946 108.946C283.246 108.64 282.453 108.37 281.568 108.137L278.646 107.34C276.666 106.801 275.096 106.008 273.937 104.961C272.786 103.915 272.21 102.531 272.21 100.808C272.21 99.3833 272.597 98.1397 273.369 97.0772C274.142 96.0147 275.189 95.1896 276.509 94.6021C277.829 94.0064 279.318 93.7086 280.976 93.7086C282.65 93.7086 284.127 94.0024 285.407 94.59C286.695 95.1776 287.709 95.9865 288.45 97.0168C289.19 98.0391 289.577 99.2143 289.609 100.542H286.011ZM302.772 100.228V103.126H292.642V100.228H302.772ZM295.359 95.7853H298.969V113.329C298.969 114.029 299.074 114.556 299.283 114.91C299.492 115.256 299.762 115.494 300.092 115.623C300.43 115.743 300.796 115.804 301.191 115.804C301.48 115.804 301.734 115.784 301.951 115.743C302.169 115.703 302.338 115.671 302.458 115.647L303.11 118.629C302.901 118.71 302.603 118.79 302.217 118.871C301.831 118.959 301.348 119.007 300.768 119.015C299.818 119.032 298.933 118.862 298.112 118.508C297.291 118.154 296.627 117.607 296.12 116.866C295.612 116.126 295.359 115.196 295.359 114.077V95.7853ZM314.378 119.148C312.64 119.148 311.122 118.75 309.826 117.953C308.531 117.156 307.524 116.041 306.808 114.608C306.092 113.176 305.733 111.501 305.733 109.586C305.733 107.662 306.092 105.98 306.808 104.539C307.524 103.098 308.531 101.979 309.826 101.182C311.122 100.385 312.64 99.987 314.378 99.987C316.117 99.987 317.634 100.385 318.93 101.182C320.226 101.979 321.232 103.098 321.949 104.539C322.665 105.98 323.023 107.662 323.023 109.586C323.023 111.501 322.665 113.176 321.949 114.608C321.232 116.041 320.226 117.156 318.93 117.953C317.634 118.75 316.117 119.148 314.378 119.148ZM314.39 116.118C315.517 116.118 316.451 115.82 317.191 115.224C317.932 114.629 318.479 113.836 318.834 112.846C319.196 111.856 319.377 110.765 319.377 109.574C319.377 108.39 319.196 107.304 318.834 106.314C318.479 105.316 317.932 104.515 317.191 103.911C316.451 103.307 315.517 103.005 314.39 103.005C313.255 103.005 312.314 103.307 311.565 103.911C310.825 104.515 310.273 105.316 309.911 106.314C309.557 107.304 309.38 108.39 309.38 109.574C309.38 110.765 309.557 111.856 309.911 112.846C310.273 113.836 310.825 114.629 311.565 115.224C312.314 115.82 313.255 116.118 314.39 116.118ZM327.053 118.774V100.228H330.542V103.174H330.735C331.073 102.176 331.669 101.392 332.522 100.82C333.384 100.241 334.358 99.9508 335.444 99.9508C335.67 99.9508 335.935 99.9588 336.241 99.9749C336.555 99.991 336.8 100.011 336.978 100.035V103.488C336.833 103.448 336.575 103.404 336.205 103.356C335.835 103.299 335.464 103.271 335.094 103.271C334.241 103.271 333.48 103.452 332.812 103.814C332.152 104.169 331.629 104.664 331.242 105.299C330.856 105.927 330.663 106.644 330.663 107.449V118.774H327.053ZM347.43 119.148C345.603 119.148 344.03 118.758 342.71 117.977C341.398 117.188 340.383 116.081 339.667 114.657C338.959 113.224 338.604 111.546 338.604 109.622C338.604 107.722 338.959 106.048 339.667 104.599C340.383 103.15 341.381 102.019 342.661 101.206C343.949 100.393 345.454 99.987 347.177 99.987C348.223 99.987 349.238 100.16 350.22 100.506C351.202 100.852 352.083 101.396 352.864 102.136C353.645 102.877 354.26 103.839 354.711 105.022C355.162 106.197 355.387 107.626 355.387 109.308V110.588H340.645V107.883H351.85C351.85 106.933 351.656 106.092 351.27 105.36C350.884 104.619 350.34 104.036 349.64 103.609C348.948 103.183 348.135 102.969 347.201 102.969C346.187 102.969 345.301 103.219 344.545 103.718C343.796 104.209 343.217 104.853 342.806 105.65C342.404 106.438 342.203 107.296 342.203 108.221V110.334C342.203 111.574 342.42 112.628 342.854 113.498C343.297 114.367 343.913 115.031 344.702 115.49C345.491 115.941 346.412 116.166 347.467 116.166C348.151 116.166 348.775 116.069 349.338 115.876C349.902 115.675 350.389 115.377 350.799 114.983C351.21 114.588 351.524 114.101 351.741 113.522L355.158 114.138C354.884 115.144 354.393 116.025 353.685 116.782C352.984 117.53 352.103 118.114 351.041 118.532C349.986 118.943 348.783 119.148 347.43 119.148Z" fill="black"/>
</svg>
