<?xml version="1.0" encoding="UTF-8"?>
<svg width="455px" height="455px" viewBox="0 0 455 455" version="1.1" xmlns="http://www.w3.org/2000/svg" xmlns:xlink="http://www.w3.org/1999/xlink">
    <title>behance-svgrepo-com</title>
    <defs>
        <linearGradient x1="0%" y1="0%" x2="100%" y2="100%" id="linearGradient-1">
            <stop stop-color="#A3A3A3" offset="0%"></stop>
            <stop stop-color="#000000" offset="100%"></stop>
        </linearGradient>
    </defs>
    <g id="Page-1" stroke="none" stroke-width="1" fill="none" fill-rule="evenodd">
        <g id="Artboard" transform="translate(-1103.000000, -998.000000)" fill="url(#linearGradient-1)" fill-rule="nonzero">
            <g id="behance-svgrepo-com" transform="translate(1103.000000, 998.000000)">
                <path d="M405,0 C432.338095,-5.0219266e-15 454.551762,21.9402858 454.993301,49.1731586 L455,50 L455,405 C455,432.338095 433.059714,454.551762 405.826841,454.993301 L405,455 L50,455 C22.6619049,455 0.448238098,433.059714 0.00669857147,405.826841 L0,405 L0,50 C-3.34795107e-15,22.6619049 21.9402858,0.448238098 49.1731586,0.00669857147 L50,0 L405,0 Z M316.691,178.301 C305.941,178.301 296.235,180.212 287.433,184.01 C278.631,187.821 271.073,193.041 264.7,199.655 C258.341,206.233 253.505,214.075 250.006,223.164 C246.579,232.221 244.826,242.022 244.826,252.512 C244.826,263.362 246.515,273.374 249.863,282.417 C253.247,291.51 257.996,299.248 264.111,305.797 C270.383,312.314 277.841,317.314 286.765,320.882 C295.696,324.406 305.64,326.195 316.691,326.195 C332.547,326.195 346.157,322.563 357.315,315.274 C368.429338,308.127662 376.62461,296.329818 382.079317,279.848015 L382.333,279.072 L348.398,279.072 C347.083,283.415 343.685,287.597 338.102,291.509 C332.469,295.425 325.751,297.39 317.977,297.39 C307.171,297.39 298.829,294.556 293.06,288.919 C287.366169,283.378525 283.645705,273.136569 283.521224,262.25537 L283.518,261.692 L384.755,261.692 C385.481,250.807 384.597,240.41 382.075,230.458 C379.531,220.489 375.464,211.601 369.745,203.83 C364.026,196.045 356.747,189.826 347.867,185.238 C338.957,180.585 328.56,178.301 316.691,178.301 Z M161.351,128.804 L120,128.804 C92.6619049,128.804 70.4482381,150.744286 70.0066986,177.977159 L70,178.804 L70,272.563 C70,299.901095 91.9402858,322.114762 119.173159,322.556301 L120,322.563 L163.915,322.563 C172.595,322.563 181.073,321.471 189.235,319.301 C197.491,317.131 204.863,313.798 211.279,309.253 C217.646,304.748 222.812,298.911 226.605,291.707 C230.363,284.595 232.246,276.134 232.246,266.309 C232.246,254.187 229.365,243.849 223.48,235.208 C217.625,226.626 208.794,220.59 196.867,217.163 C205.626,213.021 212.178,207.685 216.64,201.183 C221.066,194.67 223.279,186.523 223.279,176.769 C223.279,167.752 221.798,160.125 218.845,154.035 C215.821,147.852 211.596,142.945 206.2,139.255 C200.718,135.566 194.23,132.875 186.628,131.262 C178.983,129.605 170.62,128.804 161.351,128.804 Z M159.044,236.207 C168.227,236.207 175.692,238.319 181.289,242.565 C186.879,246.873 189.688,253.961 189.688,263.949 C189.688,269.043 188.862,273.261 187.138,276.508 C185.42,279.784 183.057,282.36 180.204,284.239 C177.351,286.193 173.967,287.515 170.152,288.349 C166.644533,289.133933 162.931484,289.511187 159.028301,289.557999 L158.189,289.563 L112.665,289.563 L112.665,236.207 L159.044,236.207 Z M315.534,207.398 C324.997,207.398 332.757,210.139 337.335,215.209 C341.933,220.317 345.296,227.581 346.216,237.407 L346.216,237.407 L283.519,237.407 C283.699,234.669 284.288,231.572 285.279,228.159 C286.263,224.656 287.959,221.38 290.445,218.276 C292.945,215.222 296.214,212.629 300.202,210.545 C304.282,208.433 309.377,207.398 315.534,207.398 Z M152.576,161.81 C156.349,161.81 160.035,162.079 163.548,162.766 C167.126,163.38 170.209,164.519 172.939,166.168 C175.691,167.752 177.868,170.015 179.513,172.907 C181.102,175.798 181.892,179.524 181.892,184.033 C181.892,192.152 179.513,198.072 174.606,201.654 C169.649,205.293 163.391,207.086 155.831,207.086 L155.831,207.086 L112.663,207.086 L112.663,161.81 Z M344.616,141.802 L285.196,141.802 C279.916158,141.802 275.636,146.082158 275.636,151.362 C275.636,156.55081 279.769838,160.774111 284.923813,160.9182 L285.196,160.922 L344.616,160.922 C349.895842,160.922 354.176,156.641842 354.176,151.362 C354.176,146.082158 349.895842,141.802 344.616,141.802 Z" id="Combined-Shape"></path>
            </g>
        </g>
    </g>
</svg>