<?xml version="1.0" encoding="UTF-8"?>
<svg width="624px" height="624px" viewBox="0 0 624 624" version="1.1" xmlns="http://www.w3.org/2000/svg" xmlns:xlink="http://www.w3.org/1999/xlink">
    <title>Group 5 Copy</title>
    <defs>
        <linearGradient x1="50%" y1="100%" x2="50%" y2="3.061617e-15%" id="linearGradient-1">
            <stop stop-color="#0066BE" offset="0%"></stop>
            <stop stop-color="#002256" offset="100%"></stop>
        </linearGradient>
        <filter x="-53.9%" y="-58.1%" width="207.7%" height="216.2%" filterUnits="objectBoundingBox" id="filter-2">
            <feOffset dx="0" dy="16" in="SourceAlpha" result="shadowOffsetOuter1"></feOffset>
            <feGaussianBlur stdDeviation="56" in="shadowOffsetOuter1" result="shadowBlurOuter1"></feGaussianBlur>
            <feColorMatrix values="0 0 0 0 0   0 0 0 0 0   0 0 0 0 0  0 0 0 0.5 0" type="matrix" in="shadowBlurOuter1" result="shadowMatrixOuter1"></feColorMatrix>
            <feMerge>
                <feMergeNode in="shadowMatrixOuter1"></feMergeNode>
                <feMergeNode in="SourceGraphic"></feMergeNode>
            </feMerge>
        </filter>
        <path d="M141.210476,322.532376 C154.713506,355.084323 173.725641,376.091874 198.246882,385.555029 C222.768123,395.018185 249.970699,396.725965 279.854611,390.67837 C286.74975,393.303952 293.569323,393.690459 300.313328,391.83789 C307.102647,391.83789 329.293202,385.555029 331.344012,385.555029 C333.394823,385.555029 344.482816,378.804984 357.037294,378.804984 C369.591772,378.804984 370.150568,382.549203 384.737892,378.804984 C390.258025,377.388098 394.766121,376.623561 398.262182,376.511374 C400.925173,376.42592 405.642049,376.345511 406.171988,375.840738 C410.722188,371.506624 412.997287,368.043562 412.997287,365.45155 C412.997287,361.110715 421.816057,360.764658 423.635217,354.827803 C425.454378,348.890947 426.564406,325.981945 421.066267,322.532376 C415.568128,319.082807 418.90956,312.236371 411.372902,310.342515 C403.836244,308.448659 393.279627,295.528269 389.905103,295.528269 C386.530579,295.528269 371.938527,290.692932 367.622275,293.110601 C363.306023,295.528269 366.426205,286.674516 361.73175,286.674516 C357.037294,286.674516 343.219615,284.658689 337.281813,278.892025 C331.344012,273.125361 331.952921,270.081766 324.634675,268.52262 C317.31643,266.963474 311.970518,253.997699 311.970518,253.997699 C311.970518,253.997699 309.56325,241.716474 306.018534,241.716474 C303.65539,241.716474 304.098834,234.457165 307.348866,219.938548 C308.235754,204.387434 308.235754,193.600429 307.348866,187.577532 C306.018534,178.543186 299.206019,159.912863 291.186323,153.428557 C283.914408,145.010684 273.234875,134.378427 253.958768,125.902877 C234.682661,117.427328 227.358743,117.380053 215.495432,106.659863 C203.632122,95.9396741 195.545177,93.4785122 190.377021,80.4569522 C185.208865,67.4353922 182.11232,61.1335698 182.11232,52.4793192 C182.11232,43.8250686 185.941251,26.5761346 192.094067,16.6993399 C196.195943,10.1148102 198.246882,4.81207641 198.246882,0.791138686 C196.137509,-0.59939096 192.921072,-0.156892405 188.597572,2.11863435 C182.11232,5.53192448 170.735002,20.4189752 167.57889,38.1709204 C164.422779,55.9228657 160.423273,69.0134479 167.57889,89.5546468 C172.349302,103.248779 177.193779,112.086459 182.11232,116.067685 C193.513277,129.604863 201.633629,138.550331 206.473379,142.904088 C213.733002,149.434724 235.705703,164.941083 237.458678,167.250964 C239.127503,168.70043 254.696266,183.648939 257.06004,194.84472 C259.423815,206.0405 261.6694,208.88743 261.6694,219.938548 C261.6694,227.30596 261.6694,233.244076 261.6694,237.752897 L261.6694,241.716474 C261.896953,245.739302 259.326742,245.739302 253.958768,241.716474 C248.590794,237.693645 244.100884,232.049267 240.489037,224.78334 C226.018325,207.10609 216.347337,196.485809 211.476071,192.922498 C206.604804,189.359187 197.781938,182.226892 185.007471,171.525613 L176.651551,164.918737 C174.479496,165.524865 172.796475,165.204881 171.602488,163.958787 C169.811509,162.089645 164.870255,157.374791 164.243165,157.374791 C163.616075,157.374791 160.869187,156.25088 159.796486,156.25088 C158.723785,156.25088 159.569189,156.509143 156.341202,154.96885 C154.189212,153.941988 152.066419,152.368423 149.972825,150.248156 C146.491294,150.057394 144.160519,149.442732 142.980502,148.40417 C141.210476,146.846327 139.951514,145.420569 136.703313,143.802964 C133.455113,142.18536 128.519699,143.473248 128.519699,141.168827 C128.519699,138.864406 122.658025,135.916275 122.05609,135.916275 C121.454156,135.916275 115.910968,135.428887 113.36218,132.273672 C110.813391,129.118458 109.224104,128.278444 107.630775,128.278444 C106.568555,128.278444 105.264214,127.763955 103.717751,126.734977 C86.5955591,112.280462 76.4935407,101.63835 73.4116959,94.8086393 C66.4517157,83.6661127 64.1868248,79.2850177 62.4955685,68.3230714 C60.8043122,57.3611251 61.2921487,43.1644546 68.1259023,34.4134947 C74.9596558,25.6625348 90.749656,12.4536658 90.749656,11.710681 C90.749656,10.9676961 94.8095695,3.4008402 86.6803091,5.54489501 C78.5510487,7.68894982 61.3954658,19.1162723 53.7814434,26.7648835 C46.167421,34.4134947 38.0878797,54.254041 42.1276503,80.4569522 C44.8208308,97.9255597 55.2488459,119.040897 73.4116959,143.802964 C90.8944487,160.561072 105.81374,172.24508 118.169569,178.854989 C130.525399,185.464898 141.511857,192.608303 151.128943,200.285204 C169.675155,215.61892 182.164698,226.669188 188.597572,233.436008 C195.030445,240.202827 200.255266,247.725956 204.272033,256.005393 C204.44014,256.438938 203.961616,256.655711 202.83646,256.655711 C202.454722,256.655711 202.920979,254.922921 198.246882,248.40253 C187.950835,234.03949 167.248693,208.05734 160.345678,208.268529 C158.041458,208.339024 161.364601,230.326988 164.243165,244.460795 C166.134439,253.746987 167.86032,257.234045 167.57889,257.358703 C165.003333,258.499533 158.202294,258.712012 149.972825,257.358703 C141.743356,256.005393 124.627241,243.851698 116.129008,240.523651 C107.630775,237.195603 81.6294117,223.926398 69.5348539,219.938548 C57.4402962,215.950697 37.1277326,205.374684 33.8145445,205.374684 C30.5013563,205.374684 17.5399289,196.766941 14.6013016,194.84472 C11.6626742,192.922498 -1.65910303,182.198768 0.172083053,200.285204 C1.39287378,212.342827 11.6024467,229.572597 30.800802,251.974513 C34.2098157,258.567928 37.9854318,264.083964 42.1276503,268.52262 C48.3409781,275.180604 54.9401097,281.316986 68.1259023,288.422627 L81.1393535,294.702614 C99.4163111,301.808005 110.157253,306.191003 113.36218,307.851608 C116.567106,309.512213 124.347484,314.405802 136.703313,322.532376 L141.210476,322.532376 Z" id="path-3"></path>
    </defs>
    <g id="Showcase" stroke="none" stroke-width="1" fill="none" fill-rule="evenodd">
        <g id="Group-4-Copy">
            <rect id="Rectangle" fill="url(#linearGradient-1)" x="0" y="0" width="624" height="624" rx="84.24"></rect>
            <g id="Group" filter="url(#filter-2)" transform="translate(101.208081, 115.870346)">
                <g id="Group-3-Copy">
                    <mask id="mask-4" fill="white">
                        <use xlink:href="#path-3"></use>
                    </mask>
                    <use id="Path-3" fill="#00F8FF" xlink:href="#path-3"></use>
                    <path d="M377.839257,309.222405 C383.813595,309.222405 388.249842,309.222405 391.147998,309.222405 C395.495231,309.222405 414.004682,314.251635 414.004682,317.520241 C414.004682,319.699313 416.394068,319.699313 421.17284,317.520241 C433.364119,311.415875 438.221432,317.418138 435.744779,335.527031 C433.415838,352.555869 434.082531,333.169827 429.753815,337.535763 C427.400615,339.909198 421.104321,339.909198 418.875327,337.535763 C412.900989,331.174285 395.187613,326.191147 395.187613,326.191147 C395.187613,326.191147 390.366327,324.625747 386.883948,322.914459 C385.260003,322.11643 385.555601,319.082649 387.770743,313.813115 C387.922588,311.341698 385.564619,311.341698 380.696834,313.813115 C375.829049,316.284533 373.955851,315.639625 375.077239,311.878393 L377.839257,309.222405 Z" id="Path-5" fill="#0081FF" mask="url(#mask-4)"></path>
                    <path d="M367.219823,349.803909 C376.556616,347.372998 383.473079,346.331259 387.969214,346.678692 C393.441362,347.101545 398.07151,349.794128 401.859655,354.75644 C405.92196,358.639846 409.208021,359.929661 411.717836,358.625883 C414.227651,357.322106 417.083046,359.438781 420.28402,364.975908 L414.706314,378.914284 C401.273217,383.705273 393.887326,384.90302 392.548642,382.507526 C390.540615,378.914284 384.560516,371.325932 379.661404,364.975908 C376.39533,360.742558 373.047265,357.336069 369.617208,354.75644 C366.66774,351.806551 365.868611,350.155708 367.219823,349.803909 Z" id="Path-6" fill="#0081FF" mask="url(#mask-4)"></path>
                    <path d="M228.049167,292.197774 C219.101448,284.33211 214.627589,278.432628 214.627589,274.499328 C214.627589,270.566027 219.101448,267.34527 228.049167,264.837057 C238.729787,260.393075 247.076187,259.854274 253.088367,263.220653 C259.100547,266.587032 279.564455,274.965318 314.480091,288.355512 C320.460636,296.413323 321.955772,300.920297 318.9655,301.876434 C315.975227,302.832572 311.945766,302.355561 306.877116,300.445402 C304.496448,302.59408 305.916011,304.611949 311.135807,306.499009 C316.355602,308.386069 318.168345,310.396993 316.574035,312.531782 L303.793789,312.531782 C298.626888,313.28533 295.259616,312.468255 293.691971,310.080557 C292.124327,307.692858 271.351625,303.413078 231.373868,297.241216 L228.049167,292.197774 Z" id="Path-8" fill="#7795FF" mask="url(#mask-4)"></path>
                    <path d="M220.781199,264.570645 C230.141518,260.781487 237.61424,255.830798 243.199364,249.718578 C248.784489,243.606358 252.849848,239.791892 255.395443,238.275182 C259.57905,241.94042 263.12735,242.856729 266.040341,241.02411 C270.409828,238.275182 291.949645,235.447713 306.11448,241.02411 C315.557704,244.741709 336.344402,258.7307 368.474575,282.991083 C370.845634,293.032089 369.526585,299.086713 364.517427,301.154955 C359.508269,303.223196 340.04062,300.844718 306.11448,294.019522 C300.607897,287.409876 293.069288,283.005482 283.498654,280.80634 C269.142703,277.507626 271.353627,282.117971 261.738923,274.405264 C252.124218,266.692556 240.947861,264.570645 235.711807,264.570645 C230.475753,264.570645 220.040297,276.224792 218.280983,271.71655 C217.108107,268.711055 217.941512,266.329087 220.781199,264.570645 Z" id="Path-4" fill="#00F8C3" mask="url(#mask-4)"></path>
                    <path d="M3.75188656,210.882133 C11.2241521,202.579909 33.7326368,214.05696 71.2773407,245.313286 C127.594396,292.197774 124.872604,315.468203 113.662282,315.468203 C102.451961,315.468203 65.7395032,309.164801 52.2498006,294.734493 C38.7600981,280.304186 3.75188656,246.427744 3.75188656,237.816703 C3.75188656,229.205662 0,228.009227 0,223.908265 C0,221.174291 1.25062885,216.832246 3.75188656,210.882133 Z" id="Path-9" fill="#0081FF" mask="url(#mask-4)"></path>
                    <path d="M202.83646,256.655711 C234.643884,257.845355 251.819262,251.565686 254.362593,237.816703 C256.905924,224.06772 258.177589,224.06772 258.177589,237.816703 C282.713687,252.980912 302.346284,255.622755 317.075379,245.742233 C339.169023,230.921449 347.229301,-15.1601449 320.460636,-23.258472 C293.691971,-31.3567992 235.825442,-42.1388991 155.83868,-42.1388991 C102.514173,-42.1388991 34.3842355,-35.8454234 -48.5511308,-23.258472 C-65.0098945,7.56787788 -65.0098945,27.5793642 -48.5511308,36.7759869 C-23.8629852,50.5709209 12.6884618,84.1119352 31.7312827,95.7206972 C44.4264967,103.459872 67.1260293,140.975816 99.8298806,208.268529 L151.00736,202.453738 C168.022817,214.695594 180.552888,225.023018 188.597572,233.436008 C196.642255,241.848998 201.388551,249.588899 202.83646,256.655711 Z" id="Path-10" fill="#0081FF" mask="url(#mask-4)"></path>
                    <path d="M172.010782,218.340083 C173.815415,239.009825 177.646256,250.586883 183.503307,253.071257 C189.360357,255.555631 195.332552,255.555631 201.41989,253.071257 C194.594122,232.454553 188.621927,221.511848 183.503307,220.243142 C178.384686,218.974436 174.553845,218.340083 172.010782,218.340083 Z" id="Path-11" fill="#007DFF" mask="url(#mask-4)"></path>
                    <path d="M248.19552,295.267465 C264.852514,284.962825 277.166641,286.959935 285.137902,301.258795 C291.267744,329.865696 277.234017,336.470158 243.03672,321.072182 C210.609818,306.47136 209.254747,298.793007 238.971507,298.037122 C239.893879,298.01366 241.276889,297.9952 243.120538,297.981742 C245.615955,296.721515 247.307615,295.816756 248.19552,295.267465 Z" id="Path" fill="#001E59" mask="url(#mask-4)"></path>
                </g>
                <path d="M262.829685,305.394379 C259.539784,312.866163 260.111359,317.294741 264.54441,318.680113 C272.178255,321.065765 275.037184,316.631959 275.037184,312.802933 C275.037184,308.973908 274.447218,301.876434 270.995665,301.876434 C269.593442,301.876434 268.247151,301.876434 266.956791,301.876434 C266.129683,301.876434 263.316655,304.288407 262.829685,305.394379 Z" id="Path-12" fill="#00F8FF"></path>
            </g>
        </g>
    </g>
</svg>