<?xml version="1.0" encoding="UTF-8"?>
<svg width="455px" height="456px" viewBox="0 0 455 456" version="1.1" xmlns="http://www.w3.org/2000/svg" xmlns:xlink="http://www.w3.org/1999/xlink">
    <title>github-svgrepo-com</title>
    <defs>
        <linearGradient x1="0.0969709114%" y1="0%" x2="99.9030291%" y2="100%" id="linearGradient-1">
            <stop stop-color="#A3A3A3" offset="0%"></stop>
            <stop stop-color="#000000" offset="100%"></stop>
        </linearGradient>
    </defs>
    <g id="Page-1" stroke="none" stroke-width="1" fill="none" fill-rule="evenodd">
        <g id="Artboard" transform="translate(-612.000000, -861.000000)" fill="url(#linearGradient-1)" fill-rule="nonzero">
            <g id="github-svgrepo-com" transform="translate(612.000000, 861.000000)">
                <path d="M405,0 C432.614237,1.23482893e-14 455,22.3857625 455,50 L455,405.44186 C455,433.056098 432.614237,455.44186 405,455.44186 L308.398096,455.441842 C308.07746,450.971457 306.226172,443.877907 297.705078,443.877907 C286.152344,443.877907 283.486328,438.540698 283.486328,433.203488 L283.486328,433.203488 L284.375,370.936047 C284.375,349.587209 277.265625,335.354651 268.378906,328.238372 C319.033203,322.901163 372.353516,303.331395 372.353516,216.156977 C372.353516,191.25 363.466797,170.790698 349.248047,154.77907 C351.914062,149.44186 359.023437,126.313953 346.582031,95.1802326 C346.582031,95.1802326 327.919922,88.9534884 284.375,118.30814 C247.050781,107.633721 207.949219,107.633721 170.625,118.30814 C127.080078,88.9534884 108.417969,95.1802326 108.417969,95.1802326 C95.9765625,126.313953 103.085937,149.44186 105.751953,154.77907 C91.5332031,170.790698 82.6464844,191.25 82.6464844,216.156977 C82.6464844,303.331395 135.078125,322.901163 185.732422,328.238372 C179.511719,334.465116 173.291016,344.25 171.513672,359.372093 C158.183594,364.709302 125.302734,374.494186 105.751953,339.802326 C105.751953,339.802326 93.3105469,318.453488 70.2050781,316.674419 L70.2050781,316.674419 L70.1468683,316.674803 C68.9112607,316.687228 48.628125,317.101395 69.3164062,330.906977 C69.3164062,330.906977 83.5351562,337.133721 94.1992187,363.819767 C94.1992187,363.819767 107.529297,402.959302 170.625,388.726744 L170.625,388.726744 L171.513672,433.203488 C171.513672,438.540698 168.847656,443.877907 157.294922,443.877907 C148.773828,443.877907 146.92254,450.971457 146.601904,455.441842 L50,455.44186 C22.3857625,455.44186 3.38176876e-15,433.056098 0,405.44186 L0,50 C-3.38176876e-15,22.3857625 22.3857625,-2.03277422e-15 50,0 L405,0 Z" id="Combined-Shape"></path>
            </g>
        </g>
    </g>
</svg>