<svg width="866" height="198" viewBox="0 0 866 198" fill="none" xmlns="http://www.w3.org/2000/svg">
<g clip-path="url(#clip0_604_6565)">
<g filter="url(#filter0_dd_604_6565)">
<g clip-path="url(#clip1_604_6565)">
<path d="M12.5449 98.6406H2055.45V154.277C2055.45 161.959 2049.23 168.186 2041.54 168.186H26.4541C18.7723 168.186 12.5449 161.959 12.5449 154.277V98.6406Z" fill="white" shape-rendering="crispEdges"/>
<g clip-path="url(#clip2_604_6565)">
<rect width="2042.91" height="69.5458" transform="translate(12.5449 98.6406)" fill="white"/>
<g clip-path="url(#clip3_604_6565)">
<rect x="12.5449" y="98.6406" width="6.95458" height="69.5458" fill="#F3D43B"/>
<path d="M622.374 133.414C622.374 135.094 621.012 136.456 619.332 136.456C617.651 136.456 616.289 135.094 616.289 133.414C616.289 131.733 617.651 130.371 619.332 130.371C621.012 130.371 622.374 131.733 622.374 133.414ZM631.068 133.414C631.068 135.094 629.705 136.456 628.025 136.456C626.345 136.456 624.982 135.094 624.982 133.414C624.982 131.733 626.345 130.371 628.025 130.371C629.705 130.371 631.068 131.733 631.068 133.414ZM636.718 136.456C638.399 136.456 639.761 135.094 639.761 133.414C639.761 131.733 638.399 130.371 636.718 130.371C635.038 130.371 633.676 131.733 633.676 133.414C633.676 135.094 635.038 136.456 636.718 136.456Z" fill="#33393D"/>
<path d="M514.664 146.984C513.895 147.551 512.805 147.396 512.23 146.638C512.005 146.341 511.884 145.98 511.884 145.61L511.883 141.836H510.841C508.344 141.836 506.32 139.838 506.32 137.375V125.707C506.32 123.243 508.344 121.246 510.841 121.246H529.618C532.115 121.246 534.139 123.243 534.139 125.707V137.375C534.139 139.838 532.115 141.836 529.618 141.836H521.638L514.664 146.984Z" fill="#FA9A00"/>
<path d="M559.349 138.633H578.474C579.168 138.633 579.583 137.859 579.197 137.281L574.303 129.939L579.197 122.598C579.583 122.02 579.168 121.246 578.474 121.246H558.48C558 121.246 557.61 121.635 557.61 122.115V146.456C557.61 146.937 558 147.326 558.48 147.326C558.96 147.326 559.349 146.937 559.349 146.456V138.633Z" fill="#FF4019"/>
<path d="M105.364 141.827H110.372V128.119L105.583 131.124V126.68L110.372 123.644H114.847V141.827H118.915V145.551H105.364V141.827ZM122.571 141.827H127.578V128.119L122.79 131.124V126.68L127.578 123.644H132.053V141.827H136.122V145.551H122.571V141.827ZM139.777 123.644H154.142V127.368H144.253V132.72H152.984V136.475H144.253V145.551H139.777V123.644ZM155.282 123.644H159.945L163.356 139.323L167.237 123.644H171.681L175.687 139.323L179.129 123.644H183.636L178.347 145.551H173.465L169.428 129.872L165.453 145.551H160.571L155.282 123.644ZM186.262 141.827H191.27V128.119L186.481 131.124V126.68L191.27 123.644H195.745V141.827H199.813V145.551H186.262V141.827ZM209.665 145.832C207.788 145.832 206.265 145.426 205.096 144.612C203.928 143.798 203.145 142.432 202.749 140.512H207.318C207.506 141.138 207.798 141.566 208.194 141.795C208.612 142.004 209.102 142.108 209.665 142.108C210.166 142.108 210.604 142.046 210.98 141.92C211.355 141.795 211.679 141.566 211.95 141.232C212.221 140.877 212.419 140.397 212.544 139.792C212.691 139.166 212.764 138.374 212.764 137.414V136.694C212.305 137.111 211.741 137.435 211.074 137.664C210.427 137.894 209.634 138.009 208.695 138.009C207.798 138.009 206.963 137.852 206.191 137.539C205.42 137.226 204.752 136.778 204.189 136.193C203.625 135.588 203.177 134.869 202.843 134.034C202.53 133.179 202.373 132.229 202.373 131.186V130.185C202.373 128.077 203.01 126.419 204.282 125.209C205.576 123.978 207.37 123.362 209.665 123.362C211.981 123.362 213.775 124.009 215.048 125.303C216.321 126.575 216.957 128.495 216.957 131.061V136.725C216.957 138.374 216.801 139.782 216.488 140.95C216.175 142.098 215.716 143.037 215.111 143.767C214.506 144.476 213.744 144.998 212.826 145.332C211.929 145.666 210.875 145.832 209.665 145.832ZM209.665 134.284C210.562 134.284 211.251 134.034 211.731 133.533C212.232 133.033 212.482 132.313 212.482 131.374V130.185C212.482 129.162 212.232 128.401 211.731 127.9C211.251 127.378 210.562 127.118 209.665 127.118C208.768 127.118 208.069 127.378 207.568 127.9C207.089 128.401 206.849 129.162 206.849 130.185V131.186C206.849 132.229 207.089 133.012 207.568 133.533C208.069 134.034 208.768 134.284 209.665 134.284Z" fill="#33393D"/>
<path d="M227.808 139.84H231.313V129.095L227.829 131.62V129.471L231.313 126.946H233.274V139.84H236.153V141.551H227.808V139.84ZM238.173 134.019H243.681V135.73H238.173V134.019ZM246.369 139.84H249.874V129.095L246.39 131.62V129.471L249.874 126.946H251.835V139.84H254.715V141.551H246.369V139.84ZM257.84 139.84H261.345V129.095L257.861 131.62V129.471L261.345 126.946H263.306V139.84H266.186V141.551H257.84V139.84ZM268.602 139.986L273.922 134.186C274.506 133.532 274.958 132.976 275.278 132.517C275.612 132.058 275.779 131.564 275.779 131.035C275.779 130.27 275.549 129.658 275.09 129.199C274.631 128.74 274.019 128.511 273.254 128.511C272.489 128.511 271.877 128.74 271.418 129.199C270.959 129.658 270.73 130.27 270.73 131.035H268.81C268.81 130.451 268.922 129.902 269.144 129.387C269.367 128.873 269.673 128.427 270.062 128.052C270.466 127.662 270.939 127.356 271.481 127.134C272.023 126.911 272.615 126.8 273.254 126.8C273.894 126.8 274.485 126.911 275.028 127.134C275.57 127.356 276.036 127.662 276.426 128.052C276.829 128.427 277.142 128.873 277.365 129.387C277.587 129.902 277.698 130.451 277.698 131.035C277.698 131.411 277.629 131.78 277.49 132.141C277.365 132.503 277.191 132.865 276.968 133.226C276.746 133.574 276.481 133.929 276.175 134.29C275.869 134.638 275.549 135 275.216 135.375L271.064 139.84H277.698V141.551H268.602V139.986ZM279.676 134.019H285.184V135.73H279.676V134.019ZM287.873 139.84H291.378V129.095L287.893 131.62V129.471L291.378 126.946H293.339V139.84H296.218V141.551H287.873V139.84ZM304.852 138.233H298.175V136.773L304.559 126.946H306.771V136.523H308.19V138.233H306.771V141.551H304.852V138.233ZM304.852 136.523V129.596L300.324 136.523H304.852Z" fill="#646E73"/>
<rect x="50.7949" y="116.027" width="34.7729" height="34.7729" rx="17.3865" fill="#FF4019"/>
<path d="M66.8144 123.778C67.4211 122.715 68.9419 122.715 69.5487 123.778L76.662 136.243C77.2675 137.304 76.5084 138.628 75.2948 138.628H61.0682C59.8546 138.628 59.0955 137.304 59.701 136.243L66.8144 123.778ZM67.3122 129.066V130.804C67.3122 131.284 67.7014 131.674 68.1815 131.674C68.6616 131.674 69.0508 131.284 69.0508 130.804V129.066C69.0508 128.586 68.6616 128.196 68.1815 128.196C67.7014 128.196 67.3122 128.586 67.3122 129.066ZM68.1815 132.978C67.4613 132.978 66.8775 133.561 66.8775 134.282C66.8775 135.002 67.4613 135.586 68.1815 135.586C68.9017 135.586 69.4855 135.002 69.4855 134.282C69.4855 133.561 68.9017 132.978 68.1815 132.978Z" fill="white"/>
<path fill-rule="evenodd" clip-rule="evenodd" d="M671.491 168.186V98.6406H673.23V168.186H671.491Z" fill="#080D12" fill-opacity="0.05"/>
</g>
<path d="M721.556 141.031H725.645V128.496L721.58 131.441V128.934L725.645 125.989H727.933V141.031H731.293V143.027H721.556V141.031ZM739.418 143.198C738.558 143.198 737.795 143.068 737.13 142.808C736.464 142.549 735.904 142.119 735.45 141.518C734.996 140.918 734.647 140.131 734.403 139.157C734.176 138.183 734.063 136.975 734.063 135.53V133.096C734.063 131.766 734.176 130.638 734.403 129.713C734.647 128.772 734.996 128.017 735.45 127.449C735.904 126.881 736.464 126.467 737.13 126.208C737.795 125.948 738.558 125.818 739.418 125.818C740.278 125.818 741.04 125.948 741.706 126.208C742.371 126.467 742.931 126.881 743.385 127.449C743.84 128.017 744.18 128.772 744.408 129.713C744.651 130.638 744.773 131.766 744.773 133.096V135.53C744.773 136.975 744.651 138.183 744.408 139.157C744.18 140.131 743.84 140.918 743.385 141.518C742.931 142.119 742.371 142.549 741.706 142.808C741.04 143.068 740.278 143.198 739.418 143.198ZM739.418 141.202C739.904 141.202 740.335 141.121 740.708 140.958C741.081 140.796 741.397 140.504 741.657 140.082C741.933 139.644 742.136 139.06 742.266 138.33C742.412 137.599 742.485 136.666 742.485 135.53V133.096C742.485 132.058 742.412 131.198 742.266 130.516C742.136 129.835 741.933 129.291 741.657 128.885C741.397 128.48 741.081 128.196 740.708 128.033C740.335 127.871 739.904 127.79 739.418 127.79C738.931 127.79 738.501 127.871 738.128 128.033C737.754 128.196 737.43 128.48 737.154 128.885C736.894 129.291 736.691 129.835 736.545 130.516C736.416 131.198 736.351 132.058 736.351 133.096V135.53C736.351 136.666 736.416 137.599 736.545 138.33C736.691 139.06 736.894 139.644 737.154 140.082C737.43 140.504 737.754 140.796 738.128 140.958C738.501 141.121 738.931 141.202 739.418 141.202ZM749.758 143.198C749.271 143.198 748.857 143.027 748.516 142.687C748.176 142.346 748.005 141.932 748.005 141.445C748.005 140.942 748.176 140.528 748.516 140.204C748.857 139.863 749.271 139.693 749.758 139.693C750.245 139.693 750.658 139.863 750.999 140.204C751.34 140.528 751.51 140.942 751.51 141.445C751.51 141.932 751.34 142.346 750.999 142.687C750.658 143.027 750.245 143.198 749.758 143.198ZM749.758 133.461C749.271 133.461 748.857 133.291 748.516 132.95C748.176 132.609 748.005 132.196 748.005 131.709C748.005 131.206 748.176 130.792 748.516 130.467C748.857 130.127 749.271 129.956 749.758 129.956C750.245 129.956 750.658 130.127 750.999 130.467C751.34 130.792 751.51 131.206 751.51 131.709C751.51 132.196 751.34 132.609 750.999 132.95C750.658 133.291 750.245 133.461 749.758 133.461ZM755.619 141.031H759.709V128.496L755.644 131.441V128.934L759.709 125.989H761.997V141.031H765.356V143.027H755.619V141.031ZM775.428 139.157H767.639V137.453L775.087 125.989H777.668V137.161H779.323V139.157H777.668V143.027H775.428V139.157ZM775.428 137.161V129.08L770.146 137.161H775.428ZM788.641 125.989H794.385C796.446 125.989 797.996 126.484 799.034 127.473C800.089 128.447 800.616 129.761 800.616 131.417C800.616 133.088 800.097 134.411 799.059 135.384C798.02 136.358 796.462 136.845 794.385 136.845H790.929V143.027H788.641V125.989ZM794.385 134.873C795.764 134.873 796.762 134.581 797.379 133.997C798.012 133.396 798.328 132.536 798.328 131.417C798.328 130.313 798.012 129.469 797.379 128.885C796.762 128.285 795.764 127.985 794.385 127.985H790.929V134.873H794.385ZM804.21 125.989H806.596L811.999 136.553L817.403 125.989H819.642V143.027H817.403V130.078L812.778 139.206H811.074L806.45 130.078V143.027H804.21V125.989Z" fill="#33393D"/>
</g>
</g>
<path d="M2056.32 97.7715V154.277C2056.32 162.439 2049.71 169.056 2041.54 169.056H26.4541C18.2922 169.056 11.6758 162.439 11.6758 154.277V97.7715H2056.32Z" stroke="#080D12" stroke-opacity="0.1" stroke-width="1.73864" shape-rendering="crispEdges"/>
</g>
<g clip-path="url(#clip4_604_6565)">
<g filter="url(#filter1_dd_604_6565)">
<g clip-path="url(#clip5_604_6565)">
<path d="M12.5435 42.9951C12.5435 35.3133 18.7708 29.0859 26.4526 29.0859H2041.54C2049.22 29.0859 2055.45 35.3133 2055.45 42.9951V98.6317H12.5435V42.9951Z" fill="#F5F7F8" shape-rendering="crispEdges"/>
<path d="M720.093 79.0484C719.231 79.0484 718.459 78.9163 717.777 78.652C717.096 78.3877 716.519 77.9774 716.046 77.421C715.573 76.8647 715.211 76.1553 714.961 75.2929C714.71 74.4305 714.585 73.4013 714.585 72.2051V70.536C714.585 68.3801 715.072 66.7805 716.046 65.7373C717.019 64.6802 718.369 64.1517 720.093 64.1517C721.609 64.1517 722.813 64.5064 723.703 65.2157C724.607 65.9251 725.198 67.0448 725.476 68.5748H723.515C723.251 67.5872 722.847 66.8918 722.305 66.4884C721.762 66.0851 721.025 65.8834 720.093 65.8834C718.967 65.8834 718.09 66.245 717.464 66.9683C716.839 67.6777 716.526 68.8669 716.526 70.536V72.2051C716.526 73.1509 716.602 73.9507 716.755 74.6044C716.922 75.2581 717.158 75.7867 717.464 76.1901C717.77 76.5934 718.139 76.8855 718.57 77.0663C719.015 77.2332 719.523 77.3167 720.093 77.3167C720.58 77.3167 721.004 77.268 721.366 77.1707C721.742 77.0594 722.061 76.8994 722.326 76.6908C722.604 76.4682 722.833 76.1831 723.014 75.8354C723.209 75.4876 723.376 75.0634 723.515 74.5627H725.476C725.156 76.1761 724.537 77.3306 723.619 78.0261C722.715 78.7076 721.54 79.0484 720.093 79.0484ZM731.983 79.0484C730.592 79.0484 729.486 78.6242 728.666 77.7757C727.845 76.9133 727.435 75.6754 727.435 74.062V72.4763C727.435 71.7252 727.539 71.0576 727.748 70.4734C727.97 69.8753 728.276 69.3746 728.666 68.9712C729.069 68.5539 729.549 68.241 730.105 68.0323C730.662 67.8098 731.288 67.6985 731.983 67.6985C732.679 67.6985 733.305 67.8098 733.861 68.0323C734.417 68.241 734.89 68.5539 735.28 68.9712C735.683 69.3746 735.989 69.8753 736.198 70.4734C736.42 71.0576 736.531 71.7252 736.531 72.4763V74.062C736.531 75.6754 736.121 76.9133 735.301 77.7757C734.48 78.6242 733.374 79.0484 731.983 79.0484ZM731.983 77.421C732.818 77.421 733.478 77.1567 733.965 76.6282C734.452 76.0857 734.695 75.2303 734.695 74.062V72.4763C734.695 71.4192 734.452 70.6333 733.965 70.1187C733.478 69.5902 732.818 69.3259 731.983 69.3259C731.149 69.3259 730.488 69.5902 730.001 70.1187C729.514 70.6333 729.271 71.4192 729.271 72.4763V74.062C729.271 75.2303 729.514 76.0857 730.001 76.6282C730.488 77.1567 731.149 77.421 731.983 77.421ZM739.182 67.8446H740.83V69.6806C741.067 69.1381 741.463 68.6722 742.019 68.2827C742.576 67.8932 743.202 67.6985 743.897 67.6985C744.565 67.6985 745.17 67.8724 745.712 68.2201C746.269 68.5678 746.665 69.0477 746.902 69.6597C747.249 69.0616 747.708 68.5887 748.279 68.241C748.849 67.8793 749.489 67.6985 750.198 67.6985C750.685 67.6985 751.137 67.7889 751.554 67.9697C751.971 68.1506 752.326 68.4218 752.618 68.7834C752.924 69.1312 753.161 69.5763 753.328 70.1187C753.495 70.6473 753.578 71.2662 753.578 71.9756V78.9023H751.721V72.0799C751.721 71.1341 751.526 70.4386 751.137 69.9935C750.761 69.5484 750.268 69.3259 749.656 69.3259C749.35 69.3259 749.051 69.3954 748.758 69.5345C748.48 69.6736 748.23 69.8683 748.007 70.1187C747.799 70.3552 747.625 70.6403 747.486 70.9741C747.361 71.3079 747.298 71.6765 747.298 72.0799V78.9023H745.462V72.0799C745.462 71.1341 745.267 70.4386 744.878 69.9935C744.488 69.5484 743.988 69.3259 743.376 69.3259C743.07 69.3259 742.778 69.3954 742.499 69.5345C742.221 69.6736 741.971 69.8683 741.748 70.1187C741.54 70.3552 741.366 70.6403 741.227 70.9741C741.101 71.3079 741.039 71.6765 741.039 72.0799V78.9023H739.182V67.8446ZM756.602 67.8446H758.251V69.6806C758.571 69.0686 758.995 68.5887 759.523 68.241C760.066 67.8932 760.733 67.7194 761.526 67.7194C762.11 67.7194 762.646 67.8237 763.133 68.0323C763.62 68.241 764.037 68.547 764.385 68.9503C764.746 69.3398 765.024 69.8336 765.219 70.4317C765.428 71.0298 765.532 71.7113 765.532 72.4763V74.062C765.532 74.8826 765.428 75.6059 765.219 76.2318C765.024 76.8577 764.746 77.3793 764.385 77.7966C764.037 78.2138 763.62 78.5268 763.133 78.7354C762.646 78.9441 762.11 79.0484 761.526 79.0484C760.775 79.0484 760.142 78.8745 759.628 78.5268C759.113 78.1791 758.724 77.734 758.459 77.1915V83.0751H756.602V67.8446ZM761.151 77.421C761.902 77.421 762.514 77.1567 762.987 76.6282C763.46 76.0857 763.696 75.2303 763.696 74.062V72.4763C763.696 71.4331 763.46 70.6542 762.987 70.1396C762.514 69.611 761.902 69.3467 761.151 69.3467C760.316 69.3467 759.655 69.611 759.169 70.1396C758.696 70.6542 758.459 71.4331 758.459 72.4763V74.062C758.459 75.2303 758.696 76.0857 759.169 76.6282C759.655 77.1567 760.316 77.421 761.151 77.421ZM771.722 78.9023C770.512 78.9023 769.65 78.645 769.135 78.1304C768.62 77.6018 768.363 76.7117 768.363 75.4598V64.2977H770.22V75.4598C770.22 76.1831 770.331 76.6699 770.554 76.9203C770.79 77.1707 771.201 77.2958 771.785 77.2958H772.202V78.9023H771.722ZM778.394 79.0484C777.727 79.0484 777.115 78.9441 776.558 78.7354C776.016 78.5129 775.55 78.193 775.161 77.7757C774.785 77.3445 774.486 76.8229 774.263 76.2109C774.055 75.585 773.95 74.8687 773.95 74.062V72.4763C773.95 70.9185 774.333 69.7362 775.098 68.9295C775.877 68.1088 776.941 67.6985 778.29 67.6985C779.639 67.6985 780.696 68.1088 781.461 68.9295C782.24 69.7362 782.63 70.9324 782.63 72.518V73.9159H775.786C775.8 75.1816 776.037 76.0927 776.496 76.6491C776.969 77.1915 777.602 77.4627 778.394 77.4627C778.742 77.4627 779.041 77.421 779.292 77.3376C779.556 77.2402 779.771 77.115 779.938 76.962C780.119 76.809 780.258 76.6352 780.356 76.4404C780.453 76.2457 780.523 76.044 780.564 75.8354H782.421C782.199 76.9203 781.747 77.727 781.065 78.2556C780.383 78.7841 779.493 79.0484 778.394 79.0484ZM778.311 69.2842C777.518 69.2842 776.899 69.5276 776.454 70.0144C776.023 70.4873 775.8 71.2871 775.786 72.4137H780.898C780.87 71.2871 780.634 70.4873 780.189 70.0144C779.758 69.5276 779.132 69.2842 778.311 69.2842ZM789.442 78.9023C788.218 78.9023 787.349 78.645 786.834 78.1304C786.32 77.6018 786.062 76.7117 786.062 75.4598V69.4719H784.519V67.8446H786.062V65.3409H787.919V67.8446H790.194V69.4719H787.919V75.4598C787.919 76.1831 788.038 76.6699 788.274 76.9203C788.511 77.1707 788.921 77.2958 789.505 77.2958H790.194V78.9023H789.442ZM796.752 79.0484C796.084 79.0484 795.472 78.9441 794.916 78.7354C794.374 78.5129 793.908 78.193 793.518 77.7757C793.143 77.3445 792.844 76.8229 792.621 76.2109C792.412 75.585 792.308 74.8687 792.308 74.062V72.4763C792.308 70.9185 792.691 69.7362 793.456 68.9295C794.235 68.1088 795.299 67.6985 796.648 67.6985C797.997 67.6985 799.054 68.1088 799.819 68.9295C800.598 69.7362 800.987 70.9324 800.987 72.518V73.9159H794.144C794.158 75.1816 794.394 76.0927 794.853 76.6491C795.326 77.1915 795.959 77.4627 796.752 77.4627C797.1 77.4627 797.399 77.421 797.649 77.3376C797.913 77.2402 798.129 77.115 798.296 76.962C798.477 76.809 798.616 76.6352 798.713 76.4404C798.811 76.2457 798.88 76.044 798.922 75.8354H800.779C800.556 76.9203 800.104 77.727 799.423 78.2556C798.741 78.7841 797.851 79.0484 796.752 79.0484ZM796.669 69.2842C795.876 69.2842 795.257 69.5276 794.812 70.0144C794.381 70.4873 794.158 71.2871 794.144 72.4137H799.256C799.228 71.2871 798.991 70.4873 798.546 70.0144C798.115 69.5276 797.489 69.2842 796.669 69.2842ZM813.058 64.2977H815.082L820.402 78.9023H818.274L816.959 75.2721H811.076L809.761 78.9023H807.717L813.058 64.2977ZM816.354 73.5612L814.017 66.7805L811.681 73.5612H816.354ZM826.382 78.9023C825.158 78.9023 824.289 78.645 823.774 78.1304C823.259 77.6018 823.002 76.7117 823.002 75.4598V69.4719H821.458V67.8446H823.002V65.3409H824.859V67.8446H827.133V69.4719H824.859V75.4598C824.859 76.1831 824.977 76.6699 825.213 76.9203C825.45 77.1707 825.86 77.2958 826.444 77.2958H827.133V78.9023H826.382Z" fill="#646E73"/>
<path fill-rule="evenodd" clip-rule="evenodd" d="M671.582 98.6317V29.0859H673.321V98.6317H671.582Z" fill="#080D12" fill-opacity="0.05"/>
<path fill-rule="evenodd" clip-rule="evenodd" d="M2055.54 99.0863H12.5435V97.3477H2055.54V99.0863Z" fill="#080D12" fill-opacity="0.05"/>
<path d="M48.3944 80.6449C46.301 80.6449 44.6458 79.9876 43.4288 78.6732C42.228 77.3588 41.6275 75.3466 41.6275 72.6367V70.6894C41.6275 68.2228 42.228 66.3567 43.4288 65.0909C44.6458 63.809 46.301 63.168 48.3944 63.168C49.4005 63.168 50.2848 63.2978 51.0475 63.5574C51.8102 63.8171 52.4593 64.1903 52.9948 64.6771C53.5303 65.164 53.9522 65.7563 54.2605 66.454C54.5689 67.1356 54.7717 67.9064 54.8691 68.7664H51.3883C51.2423 67.9388 50.9421 67.2979 50.4877 66.8435C50.0333 66.3891 49.3355 66.1619 48.3944 66.1619C47.372 66.1619 46.5688 66.5108 45.9846 67.2086C45.4004 67.8901 45.1083 69.0504 45.1083 70.6894V72.6367C45.1083 73.5778 45.1813 74.373 45.3274 75.0221C45.4897 75.6549 45.7087 76.1661 45.9846 76.5556C46.2605 76.945 46.6012 77.229 47.0069 77.4075C47.4126 77.5698 47.8751 77.6509 48.3944 77.6509C49.3518 77.6509 50.0414 77.4237 50.4633 76.9694C50.9015 76.4988 51.2098 75.8172 51.3883 74.9247H54.8691C54.6581 76.7422 54.0252 78.154 52.9705 79.16C51.9157 80.1499 50.3903 80.6449 48.3944 80.6449ZM62.2659 80.6449C60.5458 80.6449 59.1827 80.1337 58.1766 79.1114C57.1867 78.0728 56.6918 76.588 56.6918 74.657V73.0504C56.6918 72.1579 56.8216 71.3547 57.0813 70.6407C57.3409 69.9267 57.706 69.3263 58.1766 68.8395C58.6634 68.3364 59.2476 67.9551 59.9292 67.6954C60.6269 67.4358 61.4058 67.306 62.2659 67.306C63.1259 67.306 63.8967 67.4358 64.5783 67.6954C65.2761 67.9551 65.8603 68.3364 66.3308 68.8395C66.8177 69.3263 67.1909 69.9267 67.4505 70.6407C67.7102 71.3547 67.84 72.1579 67.84 73.0504V74.657C67.84 76.588 67.3369 78.0728 66.3308 79.1114C65.341 80.1337 63.986 80.6449 62.2659 80.6449ZM62.2659 77.8456C62.9961 77.8456 63.556 77.6103 63.9454 77.1397C64.3511 76.6529 64.5539 75.8253 64.5539 74.657V73.0504C64.5539 71.9957 64.3511 71.2411 63.9454 70.7867C63.556 70.3324 62.9961 70.1052 62.2659 70.1052C61.5357 70.1052 60.9677 70.3324 60.562 70.7867C60.1726 71.2411 59.9778 71.9957 59.9778 73.0504V74.657C59.9778 75.8253 60.1726 76.6529 60.562 77.1397C60.9677 77.6103 61.5357 77.8456 62.2659 77.8456ZM74.2426 80.6449C73.0094 80.6449 72.0195 80.2473 71.273 79.4521C70.5266 78.6408 70.1533 77.3994 70.1533 75.728V67.525H73.4394V75.2168C73.4394 76.158 73.6016 76.8314 73.9262 77.2371C74.267 77.6428 74.7213 77.8456 75.2893 77.8456C75.8735 77.8456 76.3684 77.6184 76.7741 77.1641C77.1798 76.7097 77.3826 76.0606 77.3826 75.2168V67.525H80.6687V80.4258H77.626V78.4055C77.3339 79.0708 76.8877 79.6144 76.2873 80.0363C75.7031 80.442 75.0215 80.6449 74.2426 80.6449ZM83.612 67.525H86.6303V69.5453C86.9386 68.88 87.4092 68.3445 88.0421 67.9388C88.675 67.5169 89.3971 67.306 90.2084 67.306C90.3707 67.306 90.5168 67.3141 90.6466 67.3303C90.7764 67.3465 90.89 67.3628 90.9874 67.379C91.101 67.3952 91.1983 67.4114 91.2795 67.4277V70.4216C91.1172 70.4054 90.9468 70.381 90.7683 70.3486C90.606 70.3324 90.4113 70.3161 90.1841 70.2999C89.9731 70.2837 89.7297 70.2756 89.4539 70.2756C88.6263 70.2756 87.9853 70.4946 87.5309 70.9328C87.0928 71.3547 86.8737 71.9551 86.8737 72.734V80.4258H83.612V67.525ZM97.6726 80.6449C96.7639 80.6449 95.9849 80.5475 95.3358 80.3528C94.703 80.158 94.1756 79.8903 93.7537 79.5495C93.348 79.1925 93.0397 78.7706 92.8287 78.2838C92.6178 77.7807 92.4961 77.2371 92.4636 76.6529H95.6766C95.7415 77.0586 95.9119 77.3913 96.1878 77.6509C96.4636 77.8943 96.9586 78.016 97.6726 78.016C98.4515 78.016 98.9789 77.9105 99.2548 77.6996C99.5468 77.4724 99.6929 77.1803 99.6929 76.8233C99.6929 76.6448 99.6685 76.4825 99.6199 76.3365C99.5712 76.1904 99.4657 76.0525 99.3034 75.9227C99.1412 75.7929 98.914 75.6712 98.6219 75.5576C98.3298 75.444 97.9322 75.3385 97.4292 75.2411C95.774 74.9166 94.5732 74.4541 93.8267 73.8537C93.0965 73.2371 92.7314 72.377 92.7314 71.2736C92.7314 70.089 93.137 69.1315 93.9484 68.4013C94.7598 67.6711 96.0012 67.306 97.6726 67.306C99.3278 67.306 100.545 67.6711 101.324 68.4013C102.119 69.1315 102.549 70.089 102.614 71.2736H99.4008C99.3359 70.8354 99.1817 70.5028 98.9383 70.2756C98.7111 70.0484 98.2892 69.9348 97.6726 69.9348C97.0235 69.9348 96.5691 70.0403 96.3095 70.2512C96.0661 70.446 95.9444 70.7299 95.9444 71.1032C95.9444 71.4439 96.0823 71.736 96.3582 71.9794C96.6503 72.2066 97.2344 72.4014 98.1107 72.5636C98.987 72.7259 99.7253 72.9206 100.326 73.1478C100.942 73.375 101.437 73.6509 101.811 73.9754C102.2 74.3 102.476 74.6813 102.638 75.1194C102.8 75.5576 102.882 76.0687 102.882 76.6529C102.882 77.8375 102.46 78.803 101.616 79.5495C100.788 80.2797 99.4738 80.6449 97.6726 80.6449ZM110.208 80.6449C109.381 80.6449 108.626 80.515 107.944 80.2554C107.279 79.9958 106.711 79.6144 106.241 79.1114C105.77 78.5921 105.405 77.9592 105.145 77.2128C104.886 76.4663 104.756 75.6144 104.756 74.657V73.0504C104.756 71.2168 105.235 69.805 106.192 68.8151C107.166 67.809 108.464 67.306 110.087 67.306C111.709 67.306 112.999 67.809 113.957 68.8151C114.93 69.805 115.417 71.2249 115.417 73.0748V74.8517H108.042C108.058 76.0525 108.253 76.8801 108.626 77.3345C109.016 77.7888 109.543 78.016 110.208 78.016C110.744 78.016 111.149 77.8862 111.425 77.6266C111.701 77.3507 111.88 77.0262 111.961 76.6529H115.174C114.995 77.8537 114.492 78.8193 113.665 79.5495C112.837 80.2797 111.685 80.6449 110.208 80.6449ZM110.184 69.9348C109.519 69.9348 109.007 70.1295 108.65 70.519C108.293 70.8922 108.091 71.5819 108.042 72.588H112.326C112.277 71.5819 112.074 70.8922 111.717 70.519C111.36 70.1295 110.849 69.9348 110.184 69.9348Z" fill="#3079F0"/>
<path d="M138.928 59.778H140.806L134.046 78.5553H132.168L138.928 59.778Z" fill="#A2ADB3"/>
<path d="M158.054 63.3871H169.227V66.2836H161.535V70.446H168.326V73.3669H161.535V80.4258H158.054V63.3871ZM173.995 80.5718C172.827 80.5718 171.902 80.2473 171.22 79.5982C170.555 78.9491 170.222 77.9917 170.222 76.7259C170.222 75.4278 170.604 74.446 171.367 73.7807C172.129 73.0991 173.273 72.7584 174.799 72.7584H177.476V72.0038C177.476 71.2736 177.322 70.7624 177.014 70.4703C176.722 70.162 176.218 70.0078 175.504 70.0078C174.823 70.0078 174.344 70.1214 174.068 70.3486C173.809 70.5758 173.663 70.8922 173.63 71.2979H170.782C170.815 70.0322 171.196 69.0504 171.926 68.3526C172.673 67.6549 173.89 67.306 175.578 67.306C177.346 67.306 178.62 67.6792 179.399 68.4257C180.178 69.1721 180.567 70.3567 180.567 71.9794V80.4258H177.72V78.4055C177.557 78.6976 177.371 78.9815 177.16 79.2574C176.949 79.517 176.697 79.7442 176.405 79.939C176.113 80.1337 175.772 80.2878 175.383 80.4014C174.993 80.515 174.531 80.5718 173.995 80.5718ZM174.993 77.943C175.788 77.943 176.397 77.7239 176.819 77.2858C177.257 76.8476 177.476 76.2148 177.476 75.3872V74.949H175.164C174.482 74.949 174.003 75.087 173.728 75.3628C173.468 75.6225 173.338 75.9876 173.338 76.4582C173.338 77.4481 173.89 77.943 174.993 77.943ZM183.653 67.525H186.915V80.4258H183.653V67.525ZM185.284 66.5514C184.748 66.5514 184.286 66.3648 183.896 65.9915C183.523 65.6021 183.337 65.1396 183.337 64.6041C183.337 64.0686 183.523 63.6142 183.896 63.241C184.286 62.8516 184.748 62.6568 185.284 62.6568C185.819 62.6568 186.274 62.8516 186.647 63.241C187.036 63.6142 187.231 64.0686 187.231 64.6041C187.231 65.1396 187.036 65.6021 186.647 65.9915C186.274 66.3648 185.819 66.5514 185.284 66.5514ZM190.207 67.525H193.226V69.5453C193.534 68.88 194.005 68.3445 194.637 67.9388C195.27 67.5169 195.992 67.306 196.804 67.306C196.966 67.306 197.112 67.3141 197.242 67.3303C197.372 67.3465 197.485 67.3628 197.583 67.379C197.696 67.3952 197.794 67.4114 197.875 67.4277V70.4216C197.713 70.4054 197.542 70.381 197.364 70.3486C197.201 70.3324 197.007 70.3161 196.779 70.2999C196.569 70.2837 196.325 70.2756 196.049 70.2756C195.222 70.2756 194.581 70.4946 194.126 70.9328C193.688 71.3547 193.469 71.9551 193.469 72.734V80.4258H190.207V67.525ZM198.475 67.525H201.81L203.805 76.4095L206.021 67.525H209.136L211.4 76.4095L213.42 67.525H216.633L213.298 80.4258H209.842L207.53 71.5413L205.266 80.4258H201.81L198.475 67.525ZM221.394 80.5718C220.225 80.5718 219.3 80.2473 218.619 79.5982C217.954 78.9491 217.621 77.9917 217.621 76.7259C217.621 75.4278 218.002 74.446 218.765 73.7807C219.528 73.0991 220.672 72.7584 222.197 72.7584H224.875V72.0038C224.875 71.2736 224.72 70.7624 224.412 70.4703C224.12 70.162 223.617 70.0078 222.903 70.0078C222.221 70.0078 221.743 70.1214 221.467 70.3486C221.207 70.5758 221.061 70.8922 221.029 71.2979H218.181C218.213 70.0322 218.595 69.0504 219.325 68.3526C220.071 67.6549 221.288 67.306 222.976 67.306C224.745 67.306 226.019 67.6792 226.797 68.4257C227.576 69.1721 227.966 70.3567 227.966 71.9794V80.4258H225.118V78.4055C224.956 78.6976 224.769 78.9815 224.558 79.2574C224.347 79.517 224.096 79.7442 223.804 79.939C223.511 80.1337 223.171 80.2878 222.781 80.4014C222.392 80.515 221.929 80.5718 221.394 80.5718ZM222.392 77.943C223.187 77.943 223.795 77.7239 224.217 77.2858C224.655 76.8476 224.875 76.2148 224.875 75.3872V74.949H222.562C221.881 74.949 221.402 75.087 221.126 75.3628C220.866 75.6225 220.737 75.9876 220.737 76.4582C220.737 77.4481 221.288 77.943 222.392 77.943ZM230.894 82.5921C231.299 82.5921 231.656 82.5516 231.965 82.4704C232.273 82.4055 232.541 82.2919 232.768 82.1297C232.995 81.9836 233.19 81.7727 233.352 81.4968C233.531 81.2371 233.685 80.9126 233.815 80.5231L228.898 67.525H232.5L235.421 76.4095L238.026 67.525H241.506L237.052 80.5231C236.711 81.5455 236.362 82.365 236.005 82.9816C235.664 83.6145 235.259 84.1013 234.788 84.4421C234.334 84.7828 233.79 85.01 233.157 85.1236C232.541 85.2372 231.786 85.294 230.894 85.294V82.5921ZM247.744 80.6449C246.836 80.6449 246.057 80.5475 245.408 80.3528C244.775 80.158 244.247 79.8903 243.825 79.5495C243.42 79.1925 243.111 78.7706 242.9 78.2838C242.689 77.7807 242.568 77.2371 242.535 76.6529H245.748C245.813 77.0586 245.984 77.3913 246.259 77.6509C246.535 77.8943 247.03 78.016 247.744 78.016C248.523 78.016 249.051 77.9105 249.326 77.6996C249.619 77.4724 249.765 77.1803 249.765 76.8233C249.765 76.6448 249.74 76.4825 249.692 76.3365C249.643 76.1904 249.537 76.0525 249.375 75.9227C249.213 75.7929 248.986 75.6712 248.694 75.5576C248.401 75.444 248.004 75.3385 247.501 75.2411C245.846 74.9166 244.645 74.4541 243.898 73.8537C243.168 73.2371 242.803 72.377 242.803 71.2736C242.803 70.089 243.209 69.1315 244.02 68.4013C244.831 67.6711 246.073 67.306 247.744 67.306C249.399 67.306 250.617 67.6711 251.395 68.4013C252.191 69.1315 252.621 70.089 252.686 71.2736H249.472C249.408 70.8354 249.253 70.5028 249.01 70.2756C248.783 70.0484 248.361 69.9348 247.744 69.9348C247.095 69.9348 246.641 70.0403 246.381 70.2512C246.138 70.446 246.016 70.7299 246.016 71.1032C246.016 71.4439 246.154 71.736 246.43 71.9794C246.722 72.2066 247.306 72.4014 248.182 72.5636C249.059 72.7259 249.797 72.9206 250.397 73.1478C251.014 73.375 251.509 73.6509 251.882 73.9754C252.272 74.3 252.548 74.6813 252.71 75.1194C252.872 75.5576 252.953 76.0687 252.953 76.6529C252.953 77.8375 252.531 78.803 251.688 79.5495C250.86 80.2797 249.546 80.6449 247.744 80.6449Z" fill="#3079F0"/>
<path d="M275.746 59.778H277.624L270.864 78.5553H268.986L275.746 59.778Z" fill="#A2ADB3"/>
<path d="M294.872 77.5292H298.767V66.8678L295.043 69.2046V65.7481L298.767 63.3871H302.248V77.5292H305.412V80.4258H294.872V77.5292ZM308.255 77.5292H312.15V66.8678L308.426 69.2046V65.7481L312.15 63.3871H315.63V77.5292H318.795V80.4258H308.255V77.5292ZM320.567 71.1762H327.236V74.0971H320.567V71.1762ZM329.91 63.3871H341.083V66.2836H333.391V70.446H340.182V73.3669H333.391V80.4258H329.91V63.3871ZM345.851 80.5718C344.683 80.5718 343.758 80.2473 343.076 79.5982C342.411 78.9491 342.078 77.9917 342.078 76.7259C342.078 75.4278 342.459 74.446 343.222 73.7807C343.985 73.0991 345.129 72.7584 346.654 72.7584H349.332V72.0038C349.332 71.2736 349.178 70.7624 348.869 70.4703C348.577 70.162 348.074 70.0078 347.36 70.0078C346.679 70.0078 346.2 70.1214 345.924 70.3486C345.664 70.5758 345.518 70.8922 345.486 71.2979H342.638C342.67 70.0322 343.052 69.0504 343.782 68.3526C344.528 67.6549 345.746 67.306 347.433 67.306C349.202 67.306 350.476 67.6792 351.255 68.4257C352.034 69.1721 352.423 70.3567 352.423 71.9794V80.4258H349.575V78.4055C349.413 78.6976 349.226 78.9815 349.015 79.2574C348.804 79.517 348.553 79.7442 348.261 79.939C347.969 80.1337 347.628 80.2878 347.238 80.4014C346.849 80.515 346.386 80.5718 345.851 80.5718ZM346.849 77.943C347.644 77.943 348.253 77.7239 348.675 77.2858C349.113 76.8476 349.332 76.2148 349.332 75.3872V74.949H347.019C346.338 74.949 345.859 75.087 345.583 75.3628C345.324 75.6225 345.194 75.9876 345.194 76.4582C345.194 77.4481 345.746 77.943 346.849 77.943ZM355.509 67.525H358.77V80.4258H355.509V67.525ZM357.14 66.5514C356.604 66.5514 356.142 66.3648 355.752 65.9915C355.379 65.6021 355.192 65.1396 355.192 64.6041C355.192 64.0686 355.379 63.6142 355.752 63.241C356.142 62.8516 356.604 62.6568 357.14 62.6568C357.675 62.6568 358.129 62.8516 358.503 63.241C358.892 63.6142 359.087 64.0686 359.087 64.6041C359.087 65.1396 358.892 65.6021 358.503 65.9915C358.129 66.3648 357.675 66.5514 357.14 66.5514ZM362.063 67.525H365.081V69.5453C365.39 68.88 365.86 68.3445 366.493 67.9388C367.126 67.5169 367.848 67.306 368.659 67.306C368.822 67.306 368.968 67.3141 369.098 67.3303C369.227 67.3465 369.341 67.3628 369.438 67.379C369.552 67.3952 369.649 67.4114 369.73 67.4277V70.4216C369.568 70.4054 369.398 70.381 369.219 70.3486C369.057 70.3324 368.862 70.3161 368.635 70.2999C368.424 70.2837 368.181 70.2756 367.905 70.2756C367.077 70.2756 366.436 70.4946 365.982 70.9328C365.544 71.3547 365.325 71.9551 365.325 72.734V80.4258H362.063V67.525ZM370.33 67.525H373.665L375.661 76.4095L377.876 67.525H380.992L383.256 76.4095L385.276 67.525H388.489L385.154 80.4258H381.698L379.385 71.5413L377.122 80.4258H373.665L370.33 67.525ZM393.249 80.5718C392.081 80.5718 391.156 80.2473 390.475 79.5982C389.809 78.9491 389.477 77.9917 389.477 76.7259C389.477 75.4278 389.858 74.446 390.621 73.7807C391.383 73.0991 392.527 72.7584 394.053 72.7584H396.73V72.0038C396.73 71.2736 396.576 70.7624 396.268 70.4703C395.976 70.162 395.473 70.0078 394.759 70.0078C394.077 70.0078 393.598 70.1214 393.322 70.3486C393.063 70.5758 392.917 70.8922 392.884 71.2979H390.036C390.069 70.0322 390.45 69.0504 391.18 68.3526C391.927 67.6549 393.144 67.306 394.832 67.306C396.6 67.306 397.874 67.6792 398.653 68.4257C399.432 69.1721 399.822 70.3567 399.822 71.9794V80.4258H396.974V78.4055C396.811 78.6976 396.625 78.9815 396.414 79.2574C396.203 79.517 395.951 79.7442 395.659 79.939C395.367 80.1337 395.026 80.2878 394.637 80.4014C394.247 80.515 393.785 80.5718 393.249 80.5718ZM394.247 77.943C395.043 77.943 395.651 77.7239 396.073 77.2858C396.511 76.8476 396.73 76.2148 396.73 75.3872V74.949H394.418C393.736 74.949 393.258 75.087 392.982 75.3628C392.722 75.6225 392.592 75.9876 392.592 76.4582C392.592 77.4481 393.144 77.943 394.247 77.943ZM402.749 82.5921C403.155 82.5921 403.512 82.5516 403.82 82.4704C404.129 82.4055 404.396 82.2919 404.624 82.1297C404.851 81.9836 405.045 81.7727 405.208 81.4968C405.386 81.2371 405.54 80.9126 405.67 80.5231L400.753 67.525H404.356L407.277 76.4095L409.881 67.525H413.362L408.908 80.5231C408.567 81.5455 408.218 82.365 407.861 82.9816C407.52 83.6145 407.114 84.1013 406.644 84.4421C406.189 84.7828 405.646 85.01 405.013 85.1236C404.396 85.2372 403.642 85.294 402.749 85.294V82.5921ZM419.6 80.6449C418.691 80.6449 417.912 80.5475 417.263 80.3528C416.63 80.158 416.103 79.8903 415.681 79.5495C415.275 79.1925 414.967 78.7706 414.756 78.2838C414.545 77.7807 414.423 77.2371 414.391 76.6529H417.604C417.669 77.0586 417.839 77.3913 418.115 77.6509C418.391 77.8943 418.886 78.016 419.6 78.016C420.379 78.016 420.906 77.9105 421.182 77.6996C421.474 77.4724 421.62 77.1803 421.62 76.8233C421.62 76.6448 421.596 76.4825 421.547 76.3365C421.499 76.1904 421.393 76.0525 421.231 75.9227C421.069 75.7929 420.841 75.6712 420.549 75.5576C420.257 75.444 419.86 75.3385 419.357 75.2411C417.701 74.9166 416.501 74.4541 415.754 73.8537C415.024 73.2371 414.659 72.377 414.659 71.2736C414.659 70.089 415.064 69.1315 415.876 68.4013C416.687 67.6711 417.929 67.306 419.6 67.306C421.255 67.306 422.472 67.6711 423.251 68.4013C424.046 69.1315 424.476 70.089 424.541 71.2736H421.328C421.263 70.8354 421.109 70.5028 420.866 70.2756C420.638 70.0484 420.217 69.9348 419.6 69.9348C418.951 69.9348 418.496 70.0403 418.237 70.2512C417.993 70.446 417.872 70.7299 417.872 71.1032C417.872 71.4439 418.01 71.736 418.286 71.9794C418.578 72.2066 419.162 72.4014 420.038 72.5636C420.914 72.7259 421.653 72.9206 422.253 73.1478C422.87 73.375 423.365 73.6509 423.738 73.9754C424.127 74.3 424.403 74.6813 424.565 75.1194C424.728 75.5576 424.809 76.0687 424.809 76.6529C424.809 77.8375 424.387 78.803 423.543 79.5495C422.716 80.2797 421.401 80.6449 419.6 80.6449Z" fill="#646E73"/>
</g>
<path d="M2041.54 28.2168C2049.7 28.2169 2056.32 34.8333 2056.32 42.9951V99.501H11.6743V42.9951C11.6743 34.8332 18.2907 28.2168 26.4526 28.2168H2041.54Z" stroke="#080D12" stroke-opacity="0.1" stroke-width="1.73865" shape-rendering="crispEdges"/>
</g>
</g>
</g>
<defs>
<filter id="filter0_dd_604_6565" x="-3.103" y="86.4705" width="2074.2" height="100.842" filterUnits="userSpaceOnUse" color-interpolation-filters="sRGB">
<feFlood flood-opacity="0" result="BackgroundImageFix"/>
<feColorMatrix in="SourceAlpha" type="matrix" values="0 0 0 0 0 0 0 0 0 0 0 0 0 0 0 0 0 0 127 0" result="hardAlpha"/>
<feMorphology radius="3.47729" operator="erode" in="SourceAlpha" result="effect1_dropShadow_604_6565"/>
<feOffset dy="3.47729"/>
<feGaussianBlur stdDeviation="3.47729"/>
<feComposite in2="hardAlpha" operator="out"/>
<feColorMatrix type="matrix" values="0 0 0 0 0.0313726 0 0 0 0 0.0509804 0 0 0 0 0.0705882 0 0 0 0.06 0"/>
<feBlend mode="normal" in2="BackgroundImageFix" result="effect1_dropShadow_604_6565"/>
<feColorMatrix in="SourceAlpha" type="matrix" values="0 0 0 0 0 0 0 0 0 0 0 0 0 0 0 0 0 0 127 0" result="hardAlpha"/>
<feOffset dy="3.47729"/>
<feGaussianBlur stdDeviation="6.95457"/>
<feComposite in2="hardAlpha" operator="out"/>
<feColorMatrix type="matrix" values="0 0 0 0 0.0313726 0 0 0 0 0.0509804 0 0 0 0 0.0705882 0 0 0 0.06 0"/>
<feBlend mode="normal" in2="effect1_dropShadow_604_6565" result="effect2_dropShadow_604_6565"/>
<feBlend mode="normal" in="SourceGraphic" in2="effect2_dropShadow_604_6565" result="shape"/>
</filter>
<filter id="filter1_dd_604_6565" x="-3.10447" y="16.9158" width="2074.2" height="100.842" filterUnits="userSpaceOnUse" color-interpolation-filters="sRGB">
<feFlood flood-opacity="0" result="BackgroundImageFix"/>
<feColorMatrix in="SourceAlpha" type="matrix" values="0 0 0 0 0 0 0 0 0 0 0 0 0 0 0 0 0 0 127 0" result="hardAlpha"/>
<feMorphology radius="3.47729" operator="erode" in="SourceAlpha" result="effect1_dropShadow_604_6565"/>
<feOffset dy="3.47729"/>
<feGaussianBlur stdDeviation="3.47729"/>
<feComposite in2="hardAlpha" operator="out"/>
<feColorMatrix type="matrix" values="0 0 0 0 0.0313726 0 0 0 0 0.0509804 0 0 0 0 0.0705882 0 0 0 0.06 0"/>
<feBlend mode="normal" in2="BackgroundImageFix" result="effect1_dropShadow_604_6565"/>
<feColorMatrix in="SourceAlpha" type="matrix" values="0 0 0 0 0 0 0 0 0 0 0 0 0 0 0 0 0 0 127 0" result="hardAlpha"/>
<feOffset dy="3.47729"/>
<feGaussianBlur stdDeviation="6.95458"/>
<feComposite in2="hardAlpha" operator="out"/>
<feColorMatrix type="matrix" values="0 0 0 0 0.0313726 0 0 0 0 0.0509804 0 0 0 0 0.0705882 0 0 0 0.06 0"/>
<feBlend mode="normal" in2="effect1_dropShadow_604_6565" result="effect2_dropShadow_604_6565"/>
<feBlend mode="normal" in="SourceGraphic" in2="effect2_dropShadow_604_6565" result="shape"/>
</filter>
<clipPath id="clip0_604_6565">
<rect width="866" height="198" fill="white"/>
</clipPath>
<clipPath id="clip1_604_6565">
<path d="M12.5449 98.6406H2055.45V154.277C2055.45 161.959 2049.23 168.186 2041.54 168.186H26.4541C18.7723 168.186 12.5449 161.959 12.5449 154.277V98.6406Z" fill="white"/>
</clipPath>
<clipPath id="clip2_604_6565">
<rect width="2042.91" height="69.5458" fill="white" transform="translate(12.5449 98.6406)"/>
</clipPath>
<clipPath id="clip3_604_6565">
<rect width="660.777" height="69.5458" fill="white" transform="translate(12.5449 98.6406)"/>
</clipPath>
<clipPath id="clip4_604_6565">
<rect width="2182" height="361.638" fill="white" transform="translate(-57 -263)"/>
</clipPath>
<clipPath id="clip5_604_6565">
<path d="M12.5435 42.9951C12.5435 35.3133 18.7708 29.0859 26.4526 29.0859H2041.54C2049.22 29.0859 2055.45 35.3133 2055.45 42.9951V98.6317H12.5435V42.9951Z" fill="white"/>
</clipPath>
</defs>
</svg>
