<?xml version="1.0" encoding="UTF-8"?>
<svg width="455px" height="455px" viewBox="0 0 455 455" version="1.1" xmlns="http://www.w3.org/2000/svg" xmlns:xlink="http://www.w3.org/1999/xlink">
    <title>linkedin-svgrepo-com</title>
    <defs>
        <linearGradient x1="100%" y1="100%" x2="0%" y2="0%" id="linearGradient-1">
            <stop stop-color="#000000" offset="0%"></stop>
            <stop stop-color="#A3A3A3" offset="100%"></stop>
        </linearGradient>
    </defs>
    <g id="Page-1" stroke="none" stroke-width="1" fill="none" fill-rule="evenodd">
        <g id="Artboard" transform="translate(-121.000000, -861.000000)" fill-rule="nonzero">
            <g id="linkedin-svgrepo-com" transform="translate(121.000000, 861.000000)">
                <path d="M246.4,204.35 L246.4,203.685 C246.264,203.908 246.076,204.131 245.958,204.35 L246.4,204.35 Z" id="Path" fill="#000000"></path>
                <path d="M0,50 L0,405 C3.38176876e-15,432.614237 22.3857625,455 50,455 L405,455 C432.614237,455 455,432.614237 455,405 L455,50 C455,22.3857625 432.614237,-5.07265313e-15 405,0 L50,0 C22.3857625,5.07265313e-15 -3.38176876e-15,22.3857625 0,50 Z M107.769,378.002 C89.1277328,378.002 74.016,362.890267 74.016,344.249 L74.016,208.659 C74.016,190.017733 89.1277328,174.906 107.769,174.906 C126.410267,174.906 141.522,190.017733 141.522,208.659 L141.522,344.249 C141.522,362.890267 126.410267,378.002 107.769,378.002 Z M107.769,147.186 L107.323,147.186 C84.678,147.186 70,131.585 70,112.085 C70,92.157 85.107,76.998 108.211,76.998 C131.32,76.998 145.521,92.157 145.963,112.085 C145.963,131.585 131.32,147.186 107.769,147.186 Z M351.238,378.003 C332.591762,378.003 317.476,362.887238 317.476,344.241 L317.476,269.345 L317.476,269.345 C317.476,242.054 307.72,223.425 283.281,223.425 C264.617,223.425 253.526,235.968 248.64,248.118 C246.864,252.458 246.4,258.491 246.4,264.577 L246.4,328.003 C246.4,355.617237 224.014237,378.003 196.4,378.003 L178.863,378.003 L178.863,378.003 C178.863,378.003 179.768,193.96 178.863,174.907 L217.621,174.907 C233.515203,174.907 246.4,187.791797 246.4,203.686 L246.4,203.686 L246.4,203.686 C255.373,189.879 271.386,170.139 307.256,170.139 C351.693,170.139 385,199.159 385,261.537 L385,344.241 C385,362.887238 369.884238,378.003 351.238,378.003 Z" id="Shape" fill="url(#linearGradient-1)"></path>
            </g>
        </g>
    </g>
</svg>