<?xml version="1.0" encoding="UTF-8"?>
<svg width="70px" height="70px" viewBox="0 0 70 70" version="1.1" xmlns="http://www.w3.org/2000/svg" xmlns:xlink="http://www.w3.org/1999/xlink">
    <title>Group</title>
    <defs>
        <linearGradient x1="50%" y1="0%" x2="50%" y2="100%" id="linearGradient-1">
            <stop stop-color="#90337C" offset="0%"></stop>
            <stop stop-color="#571746" offset="100%"></stop>
        </linearGradient>
        <filter id="filter-2">
            <feColorMatrix in="SourceGraphic" type="matrix" values="0 0 0 0 1.000000 0 0 0 0 1.000000 0 0 0 0 1.000000 0 0 0 1.000000 0"></feColorMatrix>
        </filter>
    </defs>
    <g id="PERSONAL" stroke="none" stroke-width="1" fill="none" fill-rule="evenodd">
        <g id="Group">
            <rect id="Rectangle" fill="url(#linearGradient-1)" x="0" y="0" width="70" height="70" rx="10"></rect>
            <g filter="url(#filter-2)" id="ONEHUBTV_Primary-colour-logo-(1)">
                <g transform="translate(14.000000, 10.000000)">
                    <path d="M16.5024994,13.4565535 L16.5024994,26.3573191 C16.5024994,28.3798907 17.6975455,29.5565529 19.7517173,29.5565529 L25.3907889,29.5565529 C27.4664329,29.5565529 28.5774989,28.3798907 28.5774989,26.3573191 L28.5774989,13.4565535 L26.4391084,13.4565535 L26.4391084,25.8205506 C26.4391084,27.01765 25.7682221,27.5337464 24.4474444,27.5337464 L20.6323153,27.5337464 C19.3325327,27.5337464 18.6408899,27.01765 18.6408899,25.8205506 L18.6408899,13.4565535 L16.5024994,13.4565535" id="Fill-4" fill="#F4B939"></path>
                    <path d="M40.3862896,18.5550315 C40.3862896,19.8345841 39.8163513,20.3713526 38.7677742,20.3713526 L33.6734793,20.3713526 L33.6734793,15.5000322 L38.7312543,15.5000322 C39.7796031,15.5000322 40.3862896,15.9747845 40.3862896,17.2956812 L40.3862896,18.5550315 Z M40.3862896,25.7174253 C40.3862896,27.038322 39.7796031,27.5337464 38.7312543,27.5337464 L33.6734793,27.5337464 L33.6734793,22.4148312 L38.7677742,22.4148312 C39.7978631,22.4148312 40.3862896,22.9720368 40.3862896,24.2520592 L40.3862896,25.7174253 Z M42.2624984,19.2773786 L42.2624984,16.552897 C42.2624984,14.4680743 41.0667006,13.4565535 39.3011927,13.4565535 L31.7974988,13.4565535 L31.7974988,29.5565529 L39.3011927,29.5565529 C41.0667006,29.5565529 42.2624984,28.6483924 42.2624984,26.5635697 L42.2624984,23.7357279 C42.2624984,22.5593006 41.7473399,21.9194069 41.1774015,21.5066707 C41.7473399,21.0936996 42.2624984,20.49515 42.2624984,19.2773786 L42.2624984,19.2773786 Z" id="Fill-5" fill="#F4B939"></path>
                    <path d="M15.3559892,47.5071143 C13.9434064,47.5071143 13.191426,46.9524689 13.191426,45.6654162 L13.191426,35.3637734 L19.6483206,35.3637734 L19.0147661,33.3412281 L13.191426,33.3412281 L13.191426,32.3736246 L13.1807044,32.3736246 L13.1807044,31.1665529 L10.868718,31.1665529 L10.868718,32.3736246 L10.8674996,32.3736246 L10.8674996,46.2423708 C10.8674996,48.4168087 12.1662862,49.6815522 14.3988346,49.6815522 L20.5274992,49.6815522 L19.8286399,47.5071143 L15.3559892,47.5071143" id="Fill-6" fill="#F4B939"></path>
                    <polyline id="Fill-7" fill="#F4B939" points="2.73013556 13.4565535 0.402499985 13.4565535 0.402499985 29.5565529 2.73013556 29.5565529 2.73013556 22.5593006 10.0624996 22.5593006 10.0624996 20.5571661 2.73013556 20.5571661 2.73013556 13.4565535"></polyline>
                    <path d="M31.0209695,33.5862565 L27.3353157,44.6518311 C27.0896218,45.3893793 26.7036018,47.1330598 26.7036018,47.1330598 L26.3874987,47.1330598 C26.3874987,47.1330598 25.9665203,45.4227759 25.7205803,44.6518311 L22.0703772,33.5862565 L22.0563446,33.5862565 L22.0563446,33.5815528 L19.7224993,33.5815528 L20.785039,36.9092215 L25.0189495,49.6815522 L28.0723972,49.6815522 L33.4074987,33.5862565 L31.0209695,33.5862565" id="Fill-8" fill="#F4B939"></path>
                    <path d="M2.83467762,8.7070998 C2.83467762,9.86178847 3.45119323,10.2585111 4.49597542,10.2585111 L6.60271752,10.2585111 C7.68185516,10.2585111 8.45273499,10.0242098 8.45273499,8.7070998 L8.45273499,4.53920821 C8.45273499,3.22209825 7.66467744,2.98733613 6.60271752,2.98733613 L4.49597542,2.98733613 C3.45119323,2.98733613 2.83467762,3.36654952 2.83467762,4.53920821 L2.83467762,8.7070998 Z M10.0624996,9.21210331 C10.0624996,11.0526476 8.89794398,11.8465536 7.27076631,11.8465536 L3.99946857,11.8465536 C2.3720556,11.8465536 1.20749995,11.0164771 1.20749995,9.17616328 L1.20749995,4.01577392 C1.20749995,2.17546006 2.3720556,1.381554 3.99946857,1.381554 L7.27076631,1.381554 C8.89794398,1.381554 10.0624996,2.12131963 10.0624996,3.96186387 L10.0624996,9.21210331 L10.0624996,9.21210331 Z" id="Fill-9" fill="#F4B939"></path>
                    <path d="M26.3193494,6.88470035 L32.4456483,4.59308786 L32.4456483,4.28621667 C32.4456483,3.27584906 31.9385681,2.98720556 30.5100916,2.98720556 L28.1984304,2.98720556 C26.8454152,2.98720556 26.3193494,3.51050169 26.3193494,4.62908177 L26.3193494,6.88470035 Z M34.0433117,11.8465536 L27.5971437,11.8465536 C25.8117885,11.8465536 24.5524991,11.0163863 24.5524991,9.15808515 L24.5524991,3.97957622 C24.5524991,2.1390413 25.8305337,1.381554 27.6158888,1.381554 L31.1865992,1.381554 C32.9721947,1.381554 34.2124987,2.17503521 34.2124987,4.01580086 L34.2124987,5.63944938 L26.3380946,8.52634582 C26.3380946,9.93380013 26.8454152,10.2584375 28.3113819,10.2584375 L34.0433117,10.2584375 L34.0433117,11.8465536 L34.0433117,11.8465536 Z" id="Fill-10" fill="#F4B939"></path>
                    <path d="M19.0897657,0.576554032 L14.6967422,0.576554032 C12.4651092,0.576554032 10.8674996,1.59230625 10.8674996,4.05913308 L10.9246147,29.5565529 L13.1097264,29.5565529 L13.0758719,4.80885496 C13.0758719,3.23685747 13.9450342,2.72921846 15.2605231,2.72921846 L18.4320212,2.72921846 C19.8649645,2.72921846 20.7106359,3.23685747 20.7106359,4.80885496 L20.7106359,13.3054658 L22.9424991,13.3054658 L22.9424991,4.08355476 C22.9424991,1.61649083 21.3216289,0.576554032 19.0897657,0.576554032" id="Fill-11" fill="#F4B939"></path>
                </g>
            </g>
        </g>
    </g>
</svg>