<?xml version="1.0" encoding="UTF-8"?>
<svg width="674px" height="650px" viewBox="0 0 674 650" version="1.1" xmlns="http://www.w3.org/2000/svg" xmlns:xlink="http://www.w3.org/1999/xlink">
    <title>Group 2 Copy</title>
    <defs>
        <rect id="path-1" x="0" y="0" width="674" height="650" rx="90"></rect>
        <linearGradient x1="56.0590958%" y1="47.5458702%" x2="50%" y2="59.6274274%" id="linearGradient-3">
            <stop stop-color="#898D65" offset="0%"></stop>
            <stop stop-color="#BEC19E" offset="100%"></stop>
        </linearGradient>
        <path d="M15.8441235,456.007724 C-0.304306375,480.455338 -4.10880062,496.752198 4.43064076,504.898302 C17.2398028,517.117458 43.0141552,525.228365 58.1710663,509.683706 C64.023907,504.843291 68.945434,502.137545 71.6304442,481.518369 C74.3154544,460.899192 86.1542888,418.618308 88.8599148,410.290331 C91.5655407,401.962353 111.205183,345.717321 118.647973,327.379265 C126.090764,309.041209 145.600537,271.233577 151.930472,261.233462 C158.260407,251.233347 177.764538,224.44778 195.631061,206.640423 C213.497583,188.833067 249.476387,143.946715 269.798761,127.392205 C289.078702,110.131078 330.067941,82.1183005 337.643983,76.0630761 C345.220025,70.0078516 370.775744,49.307654 372,48.0943546 C369.235316,46.6155089 358.256778,40.7013849 339.064385,30.3519827 L310.786237,54.4617858 C287.468502,71.1782377 268.826302,85.8646403 254.859635,98.5209937 C240.892969,111.177347 227.660129,125.37556 215.161113,141.115633 L193.012055,165.589214 L208.41357,132.111465 C221.592535,104.061348 231.2362,85.3785515 237.344562,76.0630761 C243.452925,66.7476006 253.8385,52.2457381 268.501285,32.5574886 L278.786357,15.3757858 L252.23,0 L243.305794,11.7579229 L225.325693,38.6452716 C212.092864,57.4327638 204.906372,67.9724316 203.766217,70.2642751 C202.055984,73.7020403 190.010965,91.5015947 183.328141,105.182694 C178.872925,114.303427 174.801621,122.525966 171.114228,129.850311 C169.148511,98.5683457 165.190757,76.6979596 159.240965,64.2391527 C153.291173,51.7803457 142.196878,32.7657705 125.958079,7.19542693 L121.118129,0.581673435 L90.0236611,22.5406726 C107.768051,41.5129803 119.260586,58.5517304 124.501263,73.6569228 C132.36228,96.3147115 135.797698,121.231578 135.797698,141.115633 C135.072293,160.93772 130.354554,192.972789 124.501263,210.623177 C118.647973,228.273565 96.0743681,292.019569 80.8078861,323.578187 C70.6302314,344.617266 56.3119991,373.877721 37.8531891,411.359551 C34.4193795,420.045223 29.8927495,429.164045 24.2732991,438.716017 C19.1624274,448.488884 16.3527022,454.252786 15.8441235,456.007724 Z" id="path-4"></path>
        <linearGradient x1="50%" y1="0%" x2="50%" y2="100%" id="linearGradient-6">
            <stop stop-color="#A7CF90" offset="0%"></stop>
            <stop stop-color="#6EA157" offset="100%"></stop>
        </linearGradient>
        <linearGradient x1="56.9485416%" y1="12.1780968%" x2="35.3875727%" y2="64.1577705%" id="linearGradient-7">
            <stop stop-color="#000000" stop-opacity="0" offset="0%"></stop>
            <stop stop-color="#000000" offset="100%"></stop>
        </linearGradient>
        <linearGradient x1="63.0613213%" y1="9.16276805%" x2="35.7095112%" y2="71.8505082%" id="linearGradient-8">
            <stop stop-color="#000000" stop-opacity="0" offset="0%"></stop>
            <stop stop-color="#000000" offset="100%"></stop>
        </linearGradient>
    </defs>
    <g id="IDEAS" stroke="none" stroke-width="1" fill="none" fill-rule="evenodd">
        <g id="Group-2-Copy">
            <mask id="mask-2" fill="white">
                <use xlink:href="#path-1"></use>
            </mask>
            <use id="Rectangle" fill="#FFFFFF" xlink:href="#path-1"></use>
            <text id="S" mask="url(#mask-2)" font-family="Arial-BoldMT, Arial" font-size="500" font-weight="bold" fill="#146415">
                <tspan x="173" y="499">S</tspan>
            </text>
            <g id="Group" mask="url(#mask-2)">
                <g transform="translate(188.000000, 61.285315)">
                    <path d="M2.71135317,503.112533 C5.50226702,508.195228 6.41030055,511.574238 5.43545375,513.249565 C3.97318355,515.762554 3.47359135,518.288539 2.51061946,518.297776 C1.54764758,518.307013 5.52809277,515.744269 9.61619782,515.705055 C13.7043029,515.66584 16.8502049,516.672475 16.8094725,519.753832 C16.76874,522.83519 18.5323154,518.14409 20.4618016,518.125582 C22.3912879,518.107074 21.8319846,519.705655 23.3117604,519.69146 C24.7915363,519.677266 27.398641,515.864976 29.6187609,516.940713 C31.8388808,518.01645 29.2703724,521.988336 33.01577,523.822773 C36.7611675,525.657209 33.2599438,523.328953 35.0450975,521.880033 C36.8302513,520.431112 41.6809136,519.107905 44.707092,522.802042 C47.7332704,526.496179 47.7069316,520.164769 49.2940571,520.149544 C50.8811826,520.13432 54.9589847,527.830449 57.1985004,526.635067 C56.5919355,525.090238 52.7012116,520.642421 52.753078,516.718801 C52.8049443,512.795181 57.4027708,511.182275 57.4299624,509.125266 C57.4480902,507.753926 57.079794,505.578255 56.3250739,502.598253 L2.71135317,503.112533 Z" id="Path-4" fill="url(#linearGradient-3)" transform="translate(29.897854, 514.679719) rotate(2.000000) translate(-29.897854, -514.679719) "></path>
                    <g id="Path-2" stroke-width="1" fill="none">
                        <mask id="mask-5" fill="white">
                            <use xlink:href="#path-4"></use>
                        </mask>
                        <g id="Path"></g>
                        <polygon id="Path-3" fill="url(#linearGradient-6)" mask="url(#mask-5)" points="123.095877 365.598339 26.0262421 350.896855 115.015908 111.848012 74.5610595 17.0295733 109.714216 -18.1429368 148.650658 -3.12438035 176.728463 89.2490265 243.336852 -23.2701498 315.355092 13.2942379 252.847072 78.3108041 338.403035 13.2942379 386.003579 46.1100798 252.847072 166.641069 176.728463 288.094505"></polygon>
                        <path d="M72.1130257,345.167243 C85.1965646,343.527861 98.5824773,345.309769 112.270764,350.512967 C125.959051,355.716165 111.359002,410.89281 68.4706175,516.0429 L7.67355577,523.231134 L-7.23673788,489.905026 L63.9755486,345.167243 L72.1130257,345.167243 Z" fill="#ECEFBD" mask="url(#mask-5)"></path>
                        <path d="M19.482562,514.679719 C29.6482672,507.786716 39.5031886,491.300969 49.047326,465.222478 C63.3635323,426.104742 116.970126,268.509107 151.235063,223.41255 C155.68861,218.526925 170.2752,201.648426 190.41207,185.215434 C252.11745,134.859845 363.659942,53.0047479 376.997907,44.2895326 C388.791682,36.5833128 395.786608,47.6099153 397.982685,77.3693402 L127.509222,523.231134 L74.3448832,546.326626 L19.482562,514.679719 Z" id="Path-5" fill="url(#linearGradient-7)" opacity="0.104677473" mask="url(#mask-5)"></path>
                        <path d="M171.114228,129.850311 C168.129715,158.452757 168.129715,175.189454 171.114228,180.060404 C174.098741,184.931354 181.398016,180.107624 193.012055,165.589214 L296.454252,11.3887428 L242.509503,-7.10357858 L171.114228,113.06339 L171.114228,129.850311 Z" id="Path-6" fill="url(#linearGradient-8)" opacity="0.192908877" mask="url(#mask-5)"></path>
                    </g>
                </g>
            </g>
        </g>
    </g>
</svg>