<?xml version="1.0" encoding="UTF-8"?><svg id="a" xmlns="http://www.w3.org/2000/svg" viewBox="0 0 324.7239 43.7896"><g><path d="M314.6458,13.6104h9.8291v2.4454h-6.9356v4.166h5.8623v2.4453h-5.8623v4.8144h7.1846v2.4454h-10.0781V13.6104Z" style="fill:#53565a;"/><path d="M293.9729,13.6104h2.9688l5.0888,9.1817,1.6719,3.4678h.0996c-.125-1.6719-.374-3.7422-.374-5.5635v-7.086h2.7695V29.9269h-2.9687l-5.0899-9.1807-1.6709-3.4678h-.1005c.125,1.7207,.375,3.6924,.375,5.5137v7.1348h-2.7696V13.6104Z" style="fill:#53565a;"/><path d="M282.678,13.6104h2.8936V29.9269h-2.8936V13.6104Z" style="fill:#53565a;"/><path d="M270.7708,13.3116c1.9707,0,3.6181,.9727,4.6396,2.0703l-1.6211,1.7969c-.8232-.8242-1.7461-1.3476-2.9931-1.3476-2.6953,0-4.5909,2.2451-4.5909,5.913,0,3.7168,1.7461,5.962,4.4913,5.962,1.4462,0,2.4941-.5987,3.417-1.6211l1.622,1.7714c-1.3222,1.5215-3.0439,2.3702-5.0898,2.3702-4.166,0-7.4092-2.9942-7.4092-8.4082,0-5.3389,3.3428-8.5069,7.5342-8.5069Z" style="fill:#53565a;"/><path d="M252.7307,13.6104h2.8936V29.9269h-2.8936V13.6104Z" style="fill:#53565a;"/><path d="M232.7786,13.6104h4.3652c4.9903,0,7.9336,2.6944,7.9336,8.084,0,5.4131-2.9433,8.2325-7.7832,8.2325h-4.5156V13.6104Zm4.166,13.9717c3.294,0,5.165-1.8711,5.165-5.8877,0-3.9922-1.871-5.7382-5.165-5.7382h-1.2725v11.6259h1.2725Z" style="fill:#53565a;"/><path d="M215.1634,13.6104h9.8291v2.4454h-6.9356v4.166h5.8623v2.4453h-5.8623v4.8144h7.1856v2.4454h-10.0791V13.6104Z" style="fill:#53565a;"/><path d="M192.2688,13.6104h3.1944l2.9433,8.0333,1.0733,3.0937h.0996l1.0468-3.0937,2.8946-8.0333h3.1933V29.9269h-2.7187v-7.46c0-1.5215,.2236-3.6914,.373-5.1885h-.0996l-1.3222,3.7168-2.8184,7.4102h-1.3477l-2.8183-7.4102-1.2979-3.7168h-.1006c.1504,1.4971,.375,3.667,.375,5.1885v7.46h-2.6699V13.6104Z" style="fill:#53565a;"/></g><polygon points="180.7099 .0016 180.7099 42.4816 178.7711 42.4816 178.7711 .0016 180.7099 .0016 180.7099 .0016" style="fill:#c7c7c7;"/><g><path d="M162.1048,30.3097l-.4199-.1396v-1.3194c-.7763,.5752-2.3198,1.4688-4.3764,1.4688-4.3023,0-7.084-2.9834-7.084-7.6035,0-1.5303,.2993-2.9893,.855-4.2178,1.3125-2.8437,4.0385-4.4707,7.4765-4.4707,1.2573,0,2.3877,.1553,3.0606,.2988v-3.331c0-1.9532-.0254-2.9922-.3047-3.4121-.3194-.458-1.0078-.5098-1.378-.5362-.0488-.0029-.0913-.0058-.1269-.0097l-.2954-.0293,.0679-.7051h.3315c.0747,0,1.8882-.1494,3.356-.4385,.6181-.1006,1.2294-.2373,1.5507-.3535l.1553-.0586,.2695,.1592-.0127,.1523c-.1035,1.293-.1201,4.0518-.1201,6.1221v12.7734c0,1.9073,.0264,3.0899,.3028,3.4698,.3252,.4648,1.0068,.5429,1.3769,.5722,.0488,.003,.0947,.003,.1309,.0098l.292,.0127v.8418h-.3243c-.3515,0-1.7197,.0937-3.0459,.3213-.7597,.124-1.3183,.2344-1.5947,.3613l-.1426,.0615Zm-3.6171-14.4082c-3.0542,0-4.5425,2.0899-4.5425,6.3887,0,1.7412,.4941,5.79,5.0395,5.79h.1465c.5523,0,1.5855-.081,2.4854-.6367v-10.4922c-.2569-.2529-1.2085-1.0498-3.1289-1.0498Z" style="fill:#8c1515;"/><path d="M137.4745,30.092v-.793l.3051-.0264c.2632-.0156,.9327-.1201,1.3907-.6465,.4873-.539,.5068-1.8261,.5068-4.497v-4.4776c0-1.9267-.0259-2.7519-.3022-3.1709-.3213-.4619-1.0264-.5107-1.4068-.5361-.0454-.0039-.0908-.0098-.1235-.0098l-.3023-.0332v-.9482l.335,.0058c.0581,.0069,.1592,.0069,.2564,.0069,.4877,0,1.6279-.0586,2.8334-.2959,.7603-.126,1.4136-.3213,1.6768-.4453l.1821-.0811,.2759,.1436v1.3613c.751-.709,1.9434-1.459,3.6231-1.459,1.0952,0,1.9824,.292,2.6254,.874l.1075,.0977v.4932l-1.3194,2.4179h-.6367l-.0976-.1523c-.3672-.5752-1.1016-1.2608-2.5215-1.2608-.6499,0-1.2154,.1621-1.7124,.4971v7.8955c0,2.0703,.0683,3.0449,.3379,3.4473,.4453,.6572,1.771,.709,2.164,.709h.3282v.8672l-.3443-.0196c-1.7256-.0879-3.0122-.1299-3.935-.1299-1.1631,0-2.4859,0-3.8863,.1299l-.3603,.0362Z" style="fill:#8c1515;"/><path d="M127.9925,30.3546c-4.7797,0-7.6357-2.9794-7.6357-7.9667,0-3.8731,2.0825-8.3965,7.9673-8.3965,4.7832,0,7.6391,2.9795,7.6391,7.9677,0,3.8731-2.0893,8.3955-7.9707,8.3955Zm.1983-14.5537c-.9258,0-1.6734,.2403-2.2193,.712-1.2573,1.0556-1.8945,2.9765-1.8945,5.7089,0,1.0557,.1953,6.3233,4.0523,6.3233,.9194,0,1.6669-.2403,2.2192-.7119,1.2573-1.0528,1.8945-2.9756,1.8945-5.709,0-1.0557-.1953-6.3233-4.0522-6.3233Z" style="fill:#8c1515;"/><path d="M109.9715,30.092v-.7608l.3057-.0224c.2666-.0196,.9326-.1231,1.394-.6436,.4874-.543,.5103-1.8652,.5103-4.5361v-7.7657h-2.0439v-.8779l.2045-.0869c.8902-.3643,1.4361-.6563,1.8394-.9688,.0029-1.3906,.0454-3.1806,.2339-4.1562,.6172-3.2324,2.7324-4.874,6.2842-4.874,1.5273,0,2.9795,.5107,3.8242,1.1963l.1206,.0976,.0483,.3311-1.5532,2.1611-.3735,.0029-.0845-.1953c-.5947-1.3281-1.459-1.8486-2.6416-1.8486-.4907,0-1.1602,.1465-1.5762,.5654-.6787,.6758-.7925,1.6836-.7925,3.6817v3.0283h3.4898v1.9433h-3.4898v8.6885c0,2.0703,.0679,3.0772,.3379,3.4805,.4385,.6592,1.7676,.7109,2.1607,.7109h.3315v.8321l-.3476-.0196c-1.7222-.0879-3.0059-.1299-3.9351-.1299-1.1631,0-2.4824,0-3.8862,.1299l-.3609,.0362Z" style="fill:#8c1515;"/><path d="M90.4336,30.092v-.7442l.3022-.0224c.2632-.0235,.9258-.127,1.3872-.6504,.4844-.5391,.5137-1.875,.5137-4.5459v-4.4776c0-1.9267-.0293-2.7519-.3086-3.1709-.3189-.4619-1.0269-.5107-1.4038-.5361-.0488-.0039-.0913-.0098-.1299-.0098l-.2993-.0332v-.8965l.3545,.0293c.0615,.0069,.1396,.0069,.2402,.0069,.4844,0,1.6245-.0655,2.8301-.2989,.9228-.1464,1.459-.4648,1.6543-.5556l.1787-.0821,.3086,.1827v1.2441c.7895-.585,2.3818-1.5039,4.539-1.5039,2.8272,0,4.6695,1.3184,5.1958,3.7139,.1495,.5947,.2046,2.0371,.2046,2.8037v4.5722c0,2.586,.1011,3.3145,.5884,3.7657,.2437,.2246,.7603,.4091,1.2119,.4384l.3086,.0235v.7305l-.7763-.0391c-1.1275-.0586-2.0957-.1104-3.1099-.1104-1.1567,0-2.1606,0-3.5581,.1299l-.3604,.0362v-.7247l.2793-.039c.6075-.0947,1.0303-.2666,1.2998-.5332,.5103-.5098,.5362-1.7119,.5752-2.7549,.0064-.1729,.0127-.3545,.0225-.543,.0293-.5849,.0293-1.8164,.0293-2.7168,0-1.1728,0-2.3847-.1299-3.58-.2339-2.0284-1.29-2.9708-3.3242-2.9708-1.4004,0-2.2744,.3223-2.9341,.6602v8.2275c0,2.586,.104,3.3145,.5884,3.7657,.2466,.2246,.7568,.4091,1.2119,.4384l.3086,.0235v.7305l-.835-.042c-1.0854-.0557-2.0244-.1075-3.0122-.1075-1.1342,0-2.1967,0-3.5971,.1299l-.354,.0362Z" style="fill:#8c1515;"/><path d="M79.5058,30.2316c-4.2466,0-4.5752-3.2266-4.5752-4.2148,0-1.1631,.312-3.2198,3.0191-4.2139,2.791-1.0274,3.3886-1.1475,5.3125-1.752v-.497c0-.9287,0-1.1563-.1851-1.7354-.3706-1.1074-1.4331-1.8027-2.876-1.8027-2.1186,0-2.9892,1.6181-2.9956,1.6338l-.1689,.3193-.7866-.4687,.0781-.2432c.3833-1.2188,1.9233-3.292,5.2866-3.292,2.1836,0,3.6069,.6211,4.4907,1.96,.6563,1.0625,.7085,2.5312,.7085,4.0673,0,1.3487-.0327,2.8506-.062,4.0625-.0195,.8311-.0356,1.5528-.0356,1.9913,0,1.1084,.1753,1.9658,1.0981,1.9658,.2276,0,.3833-.0489,.5103-.1553l.2534-.2148,.5166,.5878-.1724,.2217c-.8476,1.0235-1.6538,1.7442-3.0932,1.7442-1.2476,0-2.1089-.5909-2.4014-1.585-.6919,.7207-1.9526,1.6211-3.9219,1.6211Zm3.7564-8.2441c-2.0894,.6279-2.7979,.9785-3.4444,1.3037-.8969,.4551-1.3647,1.3779-1.3647,2.4629,0,.8476,.3022,2.2675,2.3364,2.2675,.6724,0,1.6343-.123,2.4727-.7246v-5.3095Z" style="fill:#8c1515;"/><path d="M69.1176,30.2902c-2.4238,0-3.7661-.8682-4.3637-2.8008-.2471-.7705-.2471-2.2842-.2471-3.1943,0-2.502,.0229-4.5137,.0488-6.8399l.0132-1.0918h-2.0669v-.6142l.2017-.085c.9619-.3955,1.3291-.6689,1.7544-.9971,1.5078-1.1669,2.5542-3.1425,2.5703-3.1708l.3525-.5987h.6807v3.5225h5.3389v1.9433h-5.3389v8.2276c0,2.456,.4585,3.8603,2.7881,3.8603,1.0786,0,1.9106-.4199,1.917-.4258l.3217-.166,.2764,.6368-.1367,.1523c-.0552,.0625-1.2637,1.6416-4.1104,1.6416Z" style="fill:#8c1515;"/><path d="M53.5566,30.1896c-2.0342,0-3.5806-.2217-5.1699-.7412l-.2305-.0752v-1.1367c0-1.5176-.0327-2.1123-.0649-2.5967l-.0454-.7861h.9257l.0196,.332c.039,.7051,.2763,1.4004,.7085,1.8877,.666,.7539,2.1997,1.209,3.6259,1.209,2.9864,0,4.377-1.1309,4.377-3.5586,0-2.0791-1.2866-2.9434-3.0605-4.1426l-.2828-.1953-1.875-1.248c-2.6059-1.7247-3.9316-3.1094-3.9316-5.8711,0-1.3516,.5103-5.7608,7.0771-5.7608,2.6968,0,4.773,.3535,4.8609,.3672l.2827,.0518-.0098,.2763c0,.0098-.0229,.8643-.0229,1.793,0,.7314-.0127,1.3682,.0132,2.0283l.0258,.4903h-.7959l-.0195-.3086c-.0586-.835-.3022-1.4327-.7602-1.8946-.6304-.6338-2.0279-.9297-3.5093-.9297-3.48,0-3.8862,1.7911-3.8862,3.1329,0,1.8457,.9487,2.4726,3.0151,3.8378l2.3755,1.5723c2.021,1.3486,3.9282,2.6221,3.9282,5.9756,0,5.6768-5.2964,6.291-7.5708,6.291Z" style="fill:#8c1515;"/></g><g><path d="M35.6433,0H1.8218C.9757,1.9741-.9171,9.687,.5264,18.5587c.0396,.2434,.0876,.4894,.1323,.7344,1.5452,8.4667,6.2022,17.8547,17.7068,24.2818,.1255,.0701,.2398,.1451,.367,.2146,.1271-.0694,.2413-.1443,.3669-.2145C43.074,30.1819,37.3133,3.8995,35.6433,0Z" style="fill:#8c1515;"/><path d="M18.3654,0V18.5587H.5264c.0396,.2434,.0876,.4894,.1323,.7344H18.3654v24.2818c.1255,.0701,.2398,.1451,.367,.2146,.1271-.0694,.2413-.1443,.3669-.2145V0h-.7339Z" style="fill:#fff;"/><path d="M9.4901,3.4418l.0087,.5226c.3485-.282,.854-.5061,1.2561-.5886-.2217,1.0019-.7139,1.2565-1.2484,1.3482l-.02,.8427c.436-.3509,1.0952-.8246,1.5977-.9271-.284,1.2718-.8994,1.7357-1.5802,1.8337l.0025,.8292c.5422-.3499,1.3984-.9653,2.0261-1.0679-.3598,1.291-1.1587,1.8007-2.0239,1.8811l.0015,.7633c.5432-.351,1.3947-.9004,2.0224-1.0009-.3459,1.2477-1.188,2.0039-2.0204,2.1203l.0011,.6463c.5432-.3515,1.3916-.8998,2.0193-1.0003-.3284,1.3064-1.1597,2.01-2.0286,2.0851v.5288c.6545-.386,1.7234-1.058,2.478-1.171-.4294,1.4034-1.4452,2.1657-2.4755,2.2626v.6046c.3474-.281,1.0855-.585,1.488-.6654-.2139,.9581-.986,1.2863-1.4957,1.4121l-.0025,1.1317c.1211-.0036,.2396-.0252,.3613-.0397-.0341-.3926,.1958-.7966,.7055-1.1214,.0232,.3005-.1495,.7406-.2464,1.0374,.2753-.0617,.5458-.138,.819-.2551-.1464-.5735,.0449-1.3585,.7015-2.0238,.1221,.4422,.0092,1.1658-.0506,1.6451,.2886-.1763,.5814-.3686,.8617-.6133-.3154-.5437-.2576-1.3884,.3567-2.2367,.1803,.4158,.1896,1.2193,.1963,1.7027,.2479-.2634,.5175-.5648,.7566-.8848-.4339-.5278-.4489-1.0391,.067-2.0652,.1804,.416,.3448,1.0406,.3515,1.526,.2242-.288,.3824-.5303,.5715-.8766-.1123-.2659-.0583-.4664,.0774-.6391,.1901-.2397,.4782-.4458,.7323-.2881,.3577,.1629,.1784,.5545,.0536,.8416-.0902,.2031-.2407,.3408-.5082,.3345-.1804,.3268-.4411,.6829-.6658,.9684,.5205,.1644,.8864,.2861,1.2348,.6411-.7632,.3186-1.2219,.2428-1.6038-.0742-.2469,.3294-.6077,.6849-.8658,.9561,.5024,.1561,.8327,.2963,1.2441,.7137-.836,.3495-1.4534,.2403-1.8235-.1535-.2902,.2484-.5679,.5055-.8673,.6813,.4937,.252,.8519,.52,1.1503,.9303-.9524,.2174-1.5781-.0526-1.8559-.5855-.2814,.1139-.5447,.2092-.8302,.2633,.2721,.2335,.4571,.4134,.5926,.7175-.652-.0165-1.022-.1691-1.1184-.5696-.1319,.0119-.2628,.1001-.3953,.099v1.2735l-.8014-.3567v-.9343c-.0808-.0068-.271-.0722-.3494-.0861-.1165,.3777-.4029,.5247-1.0286,.5391,.1391-.3098,.2127-.5288,.5288-.6927-.2902-.0737-.5587-.2138-.8438-.3447-.2478,.5916-.8086,.84-1.8151,.6102,.2964-.4123,.6664-.7809,1.1699-.952-.2577-.1592-.4942-.3216-.7493-.5678-.3659,.4117-.9891,.5529-1.8426,.1983,.3495-.3571,.6979-.6395,1.2287-.7411-.2675-.2654-.5149-.5875-.7684-.9096-.3824,.335-.9561,.4443-1.7389,.1159,.3505-.3567,.7504-.7344,1.2539-.7287-.1546-.219-.2896-.4684-.4509-.7221-.166-.0046-.3092-.001-.4793-.2169-.1861-.2376-.3608-.7473-.0516-.9081,.1892-.1645,.6319,.0758,.7798,.3438,.1335,.2432,.0851,.3895,.0361,.5602,.1566,.2448,.3324,.4881,.4906,.706-.1087-.7035,.0892-1.2864,.2711-1.7012,.6308,.8756,.5143,1.6322,.1623,2.1702,.2623,.3221,.4824,.5638,.7421,.8272-.0753-.4933-.015-1.2384,.1654-1.6544,.5876,.8097,.6675,1.6395,.3995,2.1853,.2463,.2086,.4761,.4065,.7205,.5617-.1336-.4648-.1933-1.2348-.0712-1.6781,.6633,.6741,.8689,1.4379,.7143,2.0141,.2824,.1304,.5556,.2413,.8391,.3072-.1341-.2758-.2639-.7453-.2408-1.0436,.4974,.3164,.6237,.6849,.6021,1.0724,.0793,.0083,.2906,.1036,.3663,.1073l-.018-1.1174c-.4895-.1258-1.2281-.4097-1.4708-1.3575,.4591,.1088,1.0472,.2206,1.4708,.5988v-.5906c-.9905-.0835-1.9909-.7859-2.4846-2.1898,.8617,.1485,1.6899,.5592,2.4846,1.0776l.0011-.5184c-.8648-.0644-1.6827-.8669-2.0497-2.01,.7185,.1351,1.3859,.4603,2.0486,.9334v-.6535c-.8122-.0897-1.643-.7787-2.0486-2.045,.7185,.1355,1.3859,.4427,2.0486,.9153v-.7298c-.8374-.0598-1.6306-.5273-2.0486-1.8286,.7185,.1351,1.3859,.5102,2.0486,.9829v-.8127c-.6602-.0753-1.2822-.4825-1.6115-1.7658,.5746,.1356,1.0823,.3814,1.6115,.8551l.0011-.8447c-.5082-.0897-.9783-.2933-1.2338-1.2859,.3463,.0799,.7663,.0985,1.2368,.5179l-.0072-.5081c-.386-.571-.301-.8231-.2556-1.2772,.0443-.4133,.1963-.7178,.6416-.7385,.4438,.0207,.5953,.3252,.6411,.7385,.0459,.4541,.131,.7062-.254,1.2772" style="fill:#fff;"/><g><path d="M28.3302,13.8864c.2592-3.2046,.7334-4.0777,1.5177-4.7301l.1181-.0979-.3237-2.1321-.2721,.0447c-.3561,.0583-.6886,.3304-.9493,.6257l-.0031-1.5775-2.3806-1.4075,.0015,1.1858c-.1829-.1757-.3427-.3091-.4123-.3607-.2412-.1779-.4555-.2607-.6741-.2607-.1293,0-.2422,.0288-.3417,.0545-.1695,.0449-.285,.0805-.5334-.0257-1.0807-.218-1.9172,.0227-2.3795,.6756-.4339,.6128-.5035,1.5601-.1819,2.4718,.2067,.586,.5844,1.2565,1.1225,1.9914,.2169,.2979,2.113,2.2965,2.5326,2.7248,.2778,.283,.5746,.5633,.8776,.8416l.0005,.7266-.4777-.3246-.6324,1.4631,.1984,.1237c.4387,.2737,.8989,1.0349,1.2163,5.0343-1.1482,.4761-2.614,1.8321-2.6547,3.2251-.0195,.6675,.2964,1.5947,1.9409,2.2388,.3159,.1232,.6581,.2567,.9984,.3953,.0211,.7603,.0402,1.5766,.0562,2.4496-.3288,.1485-.8725,.486-.9772,.9669-.0932,.4323,.1721,.8514,.7896,1.2467,.0711,.0464,.1464,.0742,.2221,.1031,.0026,.2426,.0046,.4993,.0073,.7503-.2583,.1268-.3953,.2211-.5953,.4489-.1109,.1257-.2139,.2614-.1552,.3901,.0155,.0331,.0645,.1124,.1907,.1124,.086,0,.2092-.0361,.4407-.1299,.0608-.0247,.1123-.0433,.1561-.0577,.1176,.2865,.3773,.4705,.6741,.4705,.3186,0,.5803-.2128,.6504-.5323l.0068-.0298v-.0304c-.0011-.1093-.0016-.2114-.0026-.3195,.2268-.1531,.3638-.3912,.3752-.6731,.0134-.3222-.1371-.6345-.386-.8701-.0027-.3613-.0041-.7034-.0062-1.0524,1.0544-.2448,2.1377-.9318,2.2398-1.844,.0633-.5675-.2402-1.3972-2.0482-2.128-.0715-.0288-.1375-.0567-.2072-.0855-.0021-1.5256,.0015-2.9031,.0108-4.1535,1.8734-.9498,3.1505-1.8394,3.3139-3.0288,.1706-1.2405-.8468-2.7088-3.0639-4.9095Zm-2.8176-2.6464c-2.9273-2.6537-3.051-3.8644-2.8634-4.3493,.2179-.5659,.9684-.5844,1.1209-.5474,.0923,.0202,.0969,.0381,.1258,.1562,.0458,.1876,.1149,.4715,.6772,.6566,.6256,.2072,1.1055,.3226,1.4678,.3571l.0046,4.2127c-.1746-.1597-.3489-.319-.5329-.4859Zm3.4979,17.0249c-.0062,.1195-.1464,.3489-.9319,.6097-.0025-.4902-.0041-.9709-.0061-1.4349,.5607,.2938,.9504,.5819,.938,.8252Zm-1.1364-21.935l.0025,1.1905-.6633-.1767-.3447-.1762c.0402-.217-.0908-.4907-.2851-.7577l-.0009-.8441,1.2915,.7642Zm-2.6924,17.8697c-.0448-.3706,.3469-.8478,1.287-1.5627,.0458,.7989,.0871,1.6977,.1226,2.7027-.822-.3933-1.3631-.7617-1.4096-1.14Zm2.0075,2.8243c.1149,.0494,.2283,.0994,.3386,.1509,.003,1.1168,.0087,2.3028,.017,3.5696-.0939-.0516-.2006-.1237-.2855-.2103-.0181-1.2777-.0418-2.4449-.0701-3.5102Zm.0969,5.8711c-.0036-.4056-.0078-.7983-.012-1.1854,.1196,.032,.2129,.0722,.2778,.1433,.0027,.3541,.0047,.7009,.0079,1.0648-.0367,.1057-.1882,.1355-.2737-.0227Zm.2385-7.1411c-.1293-.0546-.2571-.1082-.3792-.1623-.285-8.3712-.9143-9.5664-1.5241-10.0235l.1887-.4365,.7844,.5313-.0016-1.2616c.0944,.0845,.1892,.1716,.2825,.2556,.2778,.2474,.552,.4927,.8159,.7355-.1227,2.3784-.1707,5.6886-.1666,10.3615Zm.3062-12.3561c-.3824-.369-.7963-.7592-1.2405-1.1704l-.0057-4.7508c.05-.0175,.0922-.0406,.1295-.068l.3406,.1653,.4608,.7355,.1432-.0454-.0284-.4668,.2468-.0501,.0011,.718,.5164,.1195c.1293-.2623,.4666-.7427,.8024-.9647l.1856,1.2188c-.7906,.6994-1.2756,1.6239-1.5518,4.559Zm1.9501,5.1842c-.0983,.6014-.6541,1.1348-1.6842,1.626,.0227-1.7033,.0588-3.1314,.1129-4.3261,.9921,.9663,1.7059,1.8791,1.5714,2.7001Z" style="fill:#fff;"/><path d="M24.7752,6.4392c-.0465-.0242-.0975-.0371-.1486-.0371-.087,0-.1596,.0376-.1937,.1016-.0582,.1076,0,.2458,.1356,.321,.0494,.0269,.1025,.0407,.1541,.0407,.0844,0,.1541-.0381,.1917-.1077,.0525-.1072-.0088-.2474-.1391-.3185Z" style="fill:#8c1515;"/><path d="M25.2518,5.6079c-.0561-.0531-.1303-.0835-.204-.0835-.0588,0-.1088,.0201-.1392,.0541-.036,.0361-.0557,.0861-.0546,.1413,.0015,.0721,.0392,.1499,.101,.2061,.0583,.0552,.1314,.086,.201,.086,.0582,0,.1097-.0211,.1453-.0597,.0356-.0376,.0536-.0887,.0515-.1433-.003-.0722-.0402-.1453-.101-.201Z" style="fill:#8c1515;"/></g><path d="M14.062,26.3925l-.0021-3.9818H6.9936v7.0648h2.1822v3.9843h7.0652v-7.0673h-2.179Zm-2.0914-3.083h1.1565v2.9557h-1.1565v-2.9557Zm1.1864,6.166v.8988h-.8988v-.8988h.8988Zm-5.1053-6.166h2.9551v1.1565h-2.9551v-1.1565Zm1.1241,5.2672h-1.1551v-2.9542h1.1551v2.9542Zm.8992-3.084h.8978v.8998h-.8978v-.8998Zm.0969,1.9264h2.9552v1.1565h-2.9552v-1.1565Zm1.188,5.0136h-1.1565v-2.9572h1.1565v2.9572Zm3.8215-.033h-2.9541v-1.1575h2.9541v1.1575Zm.032-2.0563h-1.1551v-2.9541h1.1551v2.9541Z" style="fill:#fff;"/></g></svg>