<svg width="300" height="350" viewBox="0 0 300 350" fill="none" xmlns="http://www.w3.org/2000/svg">
<g filter="url(#filter0_i_1063_18417)">
<path d="M180 97C180 101.418 183.582 105 188 105H232C236.418 105 240 101.418 240 97V38C240 33.5817 243.582 30 248 30H292C296.418 30 300 33.5817 300 38V312C300 316.418 296.418 320 292 320H248C243.582 320 240 316.418 240 312V173C240 168.582 236.418 165 232 165H188C183.582 165 180 168.582 180 173V342C180 346.418 176.418 350 172 350H128C123.582 350 120 346.418 120 342V173C120 168.582 116.418 165 112 165H68C63.5817 165 60 168.582 60 173V312C60 316.418 56.4183 320 52 320H8C3.58172 320 0 316.418 0 312V38C0 33.5817 3.58172 30 8 30H52C56.4183 30 60 33.5817 60 38V97C60 101.418 63.5817 105 68 105H112C116.418 105 120 101.418 120 97V8C120 3.58172 123.582 0 128 0H172C176.418 0 180 3.58172 180 8V97ZM123 154C123 158.418 126.582 162 131 162H170C174.418 162 178 158.418 178 154V115C178 110.582 174.418 107 170 107H131C126.582 107 123 110.582 123 115V154Z" fill="url(#paint0_linear_1063_18417)"/>
</g>
<defs>
<filter id="filter0_i_1063_18417" x="0" y="0" width="303" height="354" filterUnits="userSpaceOnUse" color-interpolation-filters="sRGB">
<feFlood flood-opacity="0" result="BackgroundImageFix"/>
<feBlend mode="normal" in="SourceGraphic" in2="BackgroundImageFix" result="shape"/>
<feColorMatrix in="SourceAlpha" type="matrix" values="0 0 0 0 0 0 0 0 0 0 0 0 0 0 0 0 0 0 127 0" result="hardAlpha"/>
<feOffset dx="3" dy="4"/>
<feGaussianBlur stdDeviation="3.35"/>
<feComposite in2="hardAlpha" operator="arithmetic" k2="-1" k3="1"/>
<feColorMatrix type="matrix" values="0 0 0 0 1 0 0 0 0 1 0 0 0 0 1 0 0 0 0.31 0"/>
<feBlend mode="normal" in2="shape" result="effect1_innerShadow_1063_18417"/>
</filter>
<linearGradient id="paint0_linear_1063_18417" x1="150" y1="27" x2="150" y2="325" gradientUnits="userSpaceOnUse">
<stop/>
<stop offset="1" stop-color="#666666"/>
</linearGradient>
</defs>
</svg>
