<svg width="300" height="236" viewBox="0 0 300 236" fill="none" xmlns="http://www.w3.org/2000/svg">
<mask id="path-1-inside-1_1088_17742" fill="white">
<path d="M125 41.6667C125 46.269 128.731 50 133.333 50H235.417C240.019 50 243.75 53.731 243.75 58.3333V93.7497C243.75 98.352 247.481 102.083 252.083 102.083H291.667C296.269 102.083 300 105.814 300 110.416V227.083C300 231.685 296.269 235.416 291.667 235.416H245.833C241.231 235.416 237.5 231.685 237.5 227.083V120.833C237.5 116.231 233.769 112.5 229.167 112.5H189.583C184.981 112.5 181.25 116.231 181.25 120.833V227.083C181.25 231.685 177.519 235.416 172.917 235.416H127.083C122.481 235.416 118.75 231.685 118.75 227.083V70.8333C118.75 66.231 115.019 62.5 110.417 62.5H70.8333C66.231 62.5 62.5 66.231 62.5 70.8333V227.083C62.5 231.685 58.769 235.416 54.1667 235.416H8.33333C3.73096 235.416 0 231.685 0 227.083V8.33333C0 3.73096 3.73096 0 8.33333 0H116.667C121.269 0 125 3.73096 125 8.33333V41.6667Z"/>
</mask>
<g filter="url(#filter0_i_1088_17742)">
<path d="M125 41.6667C125 46.269 128.731 50 133.333 50H235.417C240.019 50 243.75 53.731 243.75 58.3333V93.7497C243.75 98.352 247.481 102.083 252.083 102.083H291.667C296.269 102.083 300 105.814 300 110.416V227.083C300 231.685 296.269 235.416 291.667 235.416H245.833C241.231 235.416 237.5 231.685 237.5 227.083V120.833C237.5 116.231 233.769 112.5 229.167 112.5H189.583C184.981 112.5 181.25 116.231 181.25 120.833V227.083C181.25 231.685 177.519 235.416 172.917 235.416H127.083C122.481 235.416 118.75 231.685 118.75 227.083V70.8333C118.75 66.231 115.019 62.5 110.417 62.5H70.8333C66.231 62.5 62.5 66.231 62.5 70.8333V227.083C62.5 231.685 58.769 235.416 54.1667 235.416H8.33333C3.73096 235.416 0 231.685 0 227.083V8.33333C0 3.73096 3.73096 0 8.33333 0H116.667C121.269 0 125 3.73096 125 8.33333V41.6667Z" fill="url(#paint0_linear_1088_17742)"/>
</g>
<path d="M133.333 50V51.0417H235.417V50V48.9583H133.333V50ZM243.75 58.3333H242.708V93.7497H243.75H244.792V58.3333H243.75ZM252.083 102.083V103.125H291.667V102.083V101.041H252.083V102.083ZM300 110.416H298.958V227.083H300H301.042V110.416H300ZM291.667 235.416V234.374H245.833V235.416V236.458H291.667V235.416ZM237.5 227.083H238.542V120.833H237.5H236.458V227.083H237.5ZM229.167 112.5V111.458H189.583V112.5V113.542H229.167V112.5ZM181.25 120.833H180.208V227.083H181.25H182.292V120.833H181.25ZM172.917 235.416V234.374H127.083V235.416V236.458H172.917V235.416ZM118.75 227.083H119.792V70.8333H118.75H117.708V227.083H118.75ZM110.417 62.5V61.4583H70.8333V62.5V63.5417H110.417V62.5ZM62.5 70.8333H61.4583V227.083H62.5H63.5417V70.8333H62.5ZM54.1667 235.416V234.374H8.33333V235.416V236.458H54.1667V235.416ZM0 227.083H1.04167V8.33333H0H-1.04167V227.083H0ZM8.33333 0V1.04167H116.667V0V-1.04167H8.33333V0ZM125 8.33333H123.958V41.6667H125H126.042V8.33333H125ZM116.667 0V1.04167C120.694 1.04167 123.958 4.30626 123.958 8.33333H125H126.042C126.042 3.15566 121.844 -1.04167 116.667 -1.04167V0ZM0 8.33333H1.04167C1.04167 4.30625 4.30626 1.04167 8.33333 1.04167V0V-1.04167C3.15566 -1.04167 -1.04167 3.15566 -1.04167 8.33333H0ZM8.33333 235.416V234.374C4.30626 234.374 1.04167 231.11 1.04167 227.083H0H-1.04167C-1.04167 232.26 3.15566 236.458 8.33333 236.458V235.416ZM62.5 227.083H61.4583C61.4583 231.11 58.1937 234.374 54.1667 234.374V235.416V236.458C59.3443 236.458 63.5417 232.26 63.5417 227.083H62.5ZM70.8333 62.5V61.4583C65.6557 61.4583 61.4583 65.6557 61.4583 70.8333H62.5H63.5417C63.5417 66.8063 66.8063 63.5417 70.8333 63.5417V62.5ZM118.75 70.8333H119.792C119.792 65.6557 115.594 61.4583 110.417 61.4583V62.5V63.5417C114.444 63.5417 117.708 66.8063 117.708 70.8333H118.75ZM127.083 235.416V234.374C123.056 234.374 119.792 231.11 119.792 227.083H118.75H117.708C117.708 232.26 121.906 236.458 127.083 236.458V235.416ZM181.25 227.083H180.208C180.208 231.11 176.944 234.374 172.917 234.374V235.416V236.458C178.094 236.458 182.292 232.26 182.292 227.083H181.25ZM189.583 112.5V111.458C184.406 111.458 180.208 115.656 180.208 120.833H181.25H182.292C182.292 116.806 185.556 113.542 189.583 113.542V112.5ZM237.5 120.833H238.542C238.542 115.656 234.344 111.458 229.167 111.458V112.5V113.542C233.194 113.542 236.458 116.806 236.458 120.833H237.5ZM245.833 235.416V234.374C241.806 234.374 238.542 231.11 238.542 227.083H237.5H236.458C236.458 232.26 240.656 236.458 245.833 236.458V235.416ZM300 227.083H298.958C298.958 231.11 295.694 234.374 291.667 234.374V235.416V236.458C296.844 236.458 301.042 232.26 301.042 227.083H300ZM291.667 102.083V103.125C295.694 103.125 298.958 106.389 298.958 110.416H300H301.042C301.042 105.239 296.844 101.041 291.667 101.041V102.083ZM243.75 93.7497H242.708C242.708 98.9273 246.906 103.125 252.083 103.125V102.083V101.041C248.056 101.041 244.792 97.7768 244.792 93.7497H243.75ZM235.417 50V51.0417C239.444 51.0417 242.708 54.3063 242.708 58.3333H243.75H244.792C244.792 53.1557 240.594 48.9583 235.417 48.9583V50ZM133.333 50V48.9583C129.306 48.9583 126.042 45.6937 126.042 41.6667H125H123.958C123.958 46.8443 128.156 51.0417 133.333 51.0417V50Z" fill="url(#paint1_linear_1088_17742)" mask="url(#path-1-inside-1_1088_17742)"/>
<defs>
<filter id="filter0_i_1088_17742" x="0" y="0" width="304.167" height="239.581" filterUnits="userSpaceOnUse" color-interpolation-filters="sRGB">
<feFlood flood-opacity="0" result="BackgroundImageFix"/>
<feBlend mode="normal" in="SourceGraphic" in2="BackgroundImageFix" result="shape"/>
<feColorMatrix in="SourceAlpha" type="matrix" values="0 0 0 0 0 0 0 0 0 0 0 0 0 0 0 0 0 0 127 0" result="hardAlpha"/>
<feOffset dx="4.16667" dy="4.16667"/>
<feGaussianBlur stdDeviation="4.32292"/>
<feComposite in2="hardAlpha" operator="arithmetic" k2="-1" k3="1"/>
<feColorMatrix type="matrix" values="0 0 0 0 1 0 0 0 0 1 0 0 0 0 1 0 0 0 0.25 0"/>
<feBlend mode="normal" in2="shape" result="effect1_innerShadow_1088_17742"/>
</filter>
<linearGradient id="paint0_linear_1088_17742" x1="150" y1="-75.5" x2="150" y2="297" gradientUnits="userSpaceOnUse">
<stop stop-color="#8E8E8E"/>
<stop offset="1"/>
</linearGradient>
<linearGradient id="paint1_linear_1088_17742" x1="-1.17803e-06" y1="47.3957" x2="279.166" y2="235.417" gradientUnits="userSpaceOnUse">
<stop stop-color="white"/>
<stop offset="0.451923" stop-color="white" stop-opacity="0"/>
<stop offset="1" stop-color="white"/>
</linearGradient>
</defs>
</svg>
